<svg width="140" height="78" viewBox="0 0 140 78" fill="none" xmlns="http://www.w3.org/2000/svg">
<g clip-path="url(#clip0_2017_435)">
<path d="M26.1505 39.6672L23.2257 34.6028H21.9715V39.6672H19.3125V26.6709H24.2887C25.3144 26.6709 26.1877 26.8472 26.9088 27.2015C27.6299 27.5558 28.1711 28.0339 28.5324 28.636C28.8937 29.2381 29.0736 29.9116 29.0736 30.6567C29.0736 31.5129 28.8208 32.2866 28.3137 32.9745C27.8065 33.6639 27.053 34.1389 26.0532 34.3994L29.2243 39.6688H26.1472L26.1505 39.6672ZM21.9715 32.6472H24.1931C24.9141 32.6472 25.4521 32.4772 25.8069 32.1357C26.1618 31.7941 26.3384 31.3191 26.3384 30.7107C26.3384 30.1023 26.1618 29.6527 25.8069 29.3239C25.4521 28.995 24.9141 28.8298 24.1931 28.8298H21.9715V32.6472Z" fill="#DA1E35"/>
<path d="M34.2216 38.9412C33.1829 38.3709 32.3598 37.5798 31.7521 36.5679C31.1445 35.5559 30.8398 34.4105 30.8398 33.1333C30.8398 31.8561 31.1445 30.7282 31.7521 29.7163C32.3598 28.7043 33.1829 27.9132 34.2216 27.3429C35.2602 26.7726 36.3993 26.4866 37.6405 26.4866C38.8817 26.4866 40.0371 26.7726 41.0692 27.3429C42.1014 27.9132 42.9181 28.7059 43.5192 29.7163C44.1204 30.7282 44.4218 31.8672 44.4218 33.1333C44.4218 34.3994 44.1204 35.5575 43.5192 36.5679C42.9181 37.5798 42.0982 38.3709 41.0595 38.9412C40.0209 39.5115 38.8817 39.7975 37.6405 39.7975C36.3993 39.7975 35.2602 39.5115 34.2216 38.9412ZM39.7486 36.9396C40.3563 36.5853 40.831 36.0802 41.1729 35.4225C41.5148 34.7648 41.685 34.0007 41.685 33.1317C41.685 32.2628 41.5148 31.5018 41.1729 30.8505C40.831 30.1992 40.3563 29.6988 39.7486 29.3509C39.141 29.003 38.4378 28.8298 37.6405 28.8298C36.8433 28.8298 36.1368 29.003 35.5227 29.3509C34.9086 29.6988 34.4306 30.1976 34.0887 30.8505C33.7468 31.5018 33.5766 32.2628 33.5766 33.1317C33.5766 34.0007 33.7468 34.7648 34.0887 35.4225C34.4306 36.0802 34.9086 36.5869 35.5227 36.9396C36.1368 37.2938 36.8433 37.4702 37.6405 37.4702C38.4378 37.4702 39.141 37.2938 39.7486 36.9396Z" fill="#DA1E35"/>
<path d="M54.7038 27.4716C55.7603 28.0053 56.5769 28.7663 57.1538 29.7528C57.729 30.7393 58.0174 31.8847 58.0174 33.1873C58.0174 34.49 57.729 35.629 57.1538 36.6044C56.5769 37.5782 55.7603 38.3328 54.7038 38.8666C53.6457 39.4003 52.4223 39.6672 51.0288 39.6672H46.3945V26.6709H51.0288C52.4207 26.6709 53.6457 26.9378 54.7038 27.4716ZM54.1626 36.3343C54.9225 35.5893 55.3017 34.5408 55.3017 33.1873C55.3017 31.8338 54.9225 30.7758 54.1626 30.0117C53.4026 29.2492 52.3267 28.8664 50.9332 28.8664H49.0536V37.4495H50.9332C52.3251 37.4495 53.4026 37.0762 54.1626 36.3327V36.3343Z" fill="#DA1E35"/>
<path d="M62.7294 37.4702H68.6924V39.6672H59.6523V37.656L65.578 28.8679H59.6523V26.6709H68.6924V28.6821L62.7294 37.4702Z" fill="#DA1E35"/>
<path d="M73.6102 26.6709V39.6672H70.9512V26.6709H73.6102Z" fill="#DA1E35"/>
<path d="M87.5698 39.6672H84.9108L78.8895 30.7488V39.6672H76.2305V26.6519H78.8895L84.9108 35.5893V26.6519H87.5698V39.6672Z" fill="#DA1E35"/>
<path d="M98.3194 37.1906H93.0403L92.1669 39.6672H89.375L94.1421 26.6519H97.237L102.004 39.6672H99.1928L98.3194 37.1906ZM97.5984 35.1048L95.6799 29.6686L93.7613 35.1048H97.5984Z" fill="#DA1E35"/>
<path d="M28.6766 52.4459C29.1579 53.0416 29.3977 53.7247 29.3977 54.4936C29.3977 55.1894 29.2243 55.801 28.8759 56.3268C28.5275 56.8542 28.0236 57.2672 27.3657 57.5659C26.7079 57.8646 25.9285 58.0123 25.0292 58.0123H19.3125V45.016H24.7829C25.6822 45.016 26.4567 45.159 27.1097 45.4449C27.7611 45.7309 28.2553 46.128 28.5907 46.6364C28.9262 47.1447 29.0947 47.723 29.0947 48.3679C29.0947 49.1257 28.8889 49.758 28.4773 50.2679C28.0657 50.7763 27.5181 51.1369 26.8343 51.3481C27.5813 51.4848 28.1954 51.8501 28.6766 52.4475V52.4459ZM21.9715 50.3791H24.4021C25.0356 50.3791 25.5234 50.2393 25.8653 49.9597C26.2072 49.6801 26.3789 49.2798 26.3789 48.7587C26.3789 48.2377 26.2088 47.8342 25.8653 47.5482C25.5234 47.2623 25.0356 47.1193 24.4021 47.1193H21.9715V50.3775V50.3791ZM26.1602 55.4435C26.5215 55.1449 26.7014 54.7239 26.7014 54.1774C26.7014 53.631 26.5118 53.1814 26.131 52.8653C25.7519 52.5491 25.2382 52.3903 24.5933 52.3903H21.9715V55.8915H24.65C25.2965 55.8915 25.7988 55.7422 26.1602 55.4451V55.4435Z" fill="#DA1E35"/>
<path d="M34.1825 47.1193V50.3775H38.645V52.4443H34.1825V55.8883H39.2153V58.0107H31.5234V44.9954H39.2153V47.1177H34.1825V47.1193Z" fill="#DA1E35"/>
<path d="M44.3447 55.8153H50.3076V58.0123H41.2676V56.0011L47.1933 47.213H41.2676V45.016H50.3076V47.0272L44.3447 55.8153Z" fill="#DA1E35"/>
<path d="M65.3952 45.8167C66.4517 46.3504 67.2683 47.1114 67.8452 48.0979C68.4204 49.0844 68.7089 50.2298 68.7089 51.5324C68.7089 52.8351 68.4204 53.9741 67.8452 54.9495C67.2683 55.9233 66.4517 56.6779 65.3952 57.2117C64.3371 57.7454 63.1137 58.0123 61.7202 58.0123H57.0859V45.016H61.7202C63.1121 45.016 64.3371 45.2829 65.3952 45.8167ZM64.854 54.6794C65.6139 53.9344 65.9931 52.8859 65.9931 51.5324C65.9931 50.1789 65.6139 49.1209 64.854 48.3568C64.094 47.5943 63.0181 47.2114 61.6246 47.2114H59.745V55.7946H61.6246C63.0165 55.7946 64.094 55.4213 64.854 54.6778V54.6794Z" fill="#DA1E35"/>
<path d="M77.9596 56.0202V58.0123H70.932V52.7429L69.5645 53.1528V51.0495L70.932 50.6396V45.016H73.6105V49.8009L75.2811 49.2989V51.4212L73.6105 51.9232V56.0202H77.9596Z" fill="#DA1E35"/>
<path d="M82.1187 45.016V53.0591C82.1187 53.9407 82.3536 54.6143 82.8219 55.0798C83.2902 55.5452 83.9481 55.7787 84.7971 55.7787C85.6462 55.7787 86.3219 55.5452 86.7918 55.0798C87.2601 54.6143 87.4951 53.9407 87.4951 53.0591V45.016H90.1735V53.0416C90.1735 54.1473 89.9289 55.0798 89.4427 55.8439C88.955 56.608 88.3036 57.1815 87.487 57.5659C86.6703 57.9503 85.7613 58.1426 84.7615 58.1426C83.7617 58.1426 82.8786 57.9503 82.0749 57.5659C81.2712 57.1815 80.6344 56.6064 80.1661 55.8439C79.6978 55.0798 79.4629 54.1473 79.4629 53.0416V45.016H82.1219H82.1187Z" fill="#DA1E35"/>
<path d="M101.964 48.9255C101.659 48.3791 101.243 47.9644 100.71 47.6785C100.178 47.3925 99.5575 47.2496 98.8477 47.2496C98.0619 47.2496 97.3667 47.4227 96.7591 47.7706C96.1515 48.1185 95.6767 48.6142 95.3348 49.2607C94.9929 49.9057 94.8227 50.6508 94.8227 51.4943C94.8227 52.3378 94.9961 53.121 95.3445 53.766C95.6929 54.411 96.1774 54.9082 96.798 55.2561C97.4186 55.604 98.1396 55.7771 98.9628 55.7771C99.9755 55.7771 100.805 55.5134 101.45 54.986C102.097 54.4586 102.52 53.7231 102.722 52.7795H98.1639V50.7874H105.342V53.0591C105.164 53.9661 104.785 54.8033 104.203 55.5722C103.62 56.3427 102.87 56.9591 101.952 57.4245C101.034 57.89 100.006 58.1235 98.8656 58.1235C97.5871 58.1235 96.4318 57.8407 95.3996 57.2768C94.3674 56.7128 93.5572 55.9265 92.969 54.9209C92.3808 53.9153 92.0859 52.7731 92.0859 51.4959C92.0859 50.2187 92.3808 49.0717 92.969 48.0598C93.5572 47.0478 94.3674 46.2599 95.3996 45.6959C96.4318 45.132 97.5806 44.8492 98.8461 44.8492C100.34 44.8492 101.638 45.2066 102.74 45.9199C103.842 46.6348 104.602 47.6356 105.018 48.9271H101.96L101.964 48.9255Z" fill="#DA1E35"/>
<path d="M110.056 57.2863C109.017 56.716 108.194 55.9249 107.586 54.913C106.978 53.901 106.674 52.7556 106.674 51.4784C106.674 50.2012 106.978 49.0733 107.586 48.0613C108.194 47.0494 109.017 46.2583 110.056 45.688C111.094 45.1177 112.233 44.8317 113.475 44.8317C114.716 44.8317 115.871 45.1177 116.903 45.688C117.935 46.2583 118.752 47.051 119.353 48.0613C119.954 49.0733 120.256 50.2123 120.256 51.4784C120.256 52.7445 119.954 53.9026 119.353 54.913C118.752 55.9249 117.932 56.716 116.894 57.2863C115.855 57.8566 114.716 58.1426 113.475 58.1426C112.233 58.1426 111.094 57.8566 110.056 57.2863ZM115.583 55.2847C116.19 54.9304 116.665 54.4253 117.007 53.7676C117.349 53.1099 117.519 52.3458 117.519 51.4768C117.519 50.6079 117.349 49.8469 117.007 49.1956C116.665 48.5443 116.19 48.0439 115.583 47.696C114.975 47.3481 114.272 47.1749 113.475 47.1749C112.677 47.1749 111.971 47.3481 111.357 47.696C110.743 48.0439 110.265 48.5427 109.923 49.1956C109.581 49.8469 109.411 50.6079 109.411 51.4768C109.411 52.3458 109.581 53.1099 109.923 53.7676C110.265 54.4253 110.743 54.932 111.357 55.2847C111.971 55.6389 112.677 55.8153 113.475 55.8153C114.272 55.8153 114.975 55.6389 115.583 55.2847ZM115.545 42.3154L111.177 44.271V42.4091L115.545 40.193V42.3154Z" fill="#DA1E35"/>
<path d="M139.949 45.016L136.245 58.0123H133.111L130.624 48.7587L128.022 58.0123L124.907 58.0314L121.336 45.016H124.185L126.521 55.1083L129.217 45.016H132.179L134.725 55.0527L137.079 45.016H139.948H139.949Z" fill="#DA1E35"/>
<path d="M34.3516 13.6953V17.1139H70.3027V23.8273H74.0944V13.6953H34.3516Z" fill="#DA1E35"/>
<path d="M70.3036 73.123L5.2149 59.6517L3.40171 16.7676L38.5881 3.01515L35.4137 0.0333595L0.0507812 14.0988L0.807494 62.759L0.813976 62.7574V62.759L74.0742 77.9666L74.0952 63.3945H70.3036V73.123Z" fill="#DA1E35"/>
</g>
<defs>
<clipPath id="clip0_2017_435">
<rect width="140" height="78" fill="white"/>
</clipPath>
</defs>
</svg>
