<svg width="267" height="207" viewBox="0 0 267 207" fill="none" xmlns="http://www.w3.org/2000/svg">
<path d="M49.2401 8.32331V8.31012C48.7587 8.67279 29.7549 22.7113 48.5147 41.8799V41.8931C48.9961 41.5305 67.9998 27.4919 49.2401 8.32331Z" fill="#071942"/>
<path d="M22.8644 30.2284V30.2152C22.8644 30.2152 22.8578 30.2152 22.8512 30.2218C22.8512 30.2218 22.8512 30.2218 22.8446 30.2218C22.5149 30.835 9.69626 54.7513 38.591 65.4269V65.4401C38.591 65.4401 38.5976 65.4401 38.6042 65.4335C38.6042 65.4335 38.6042 65.4335 38.6108 65.4335C38.9405 64.8203 51.7591 40.904 22.8644 30.2284Z" fill="#071942"/>
<path d="M63.582 180.874V180.887C63.582 180.887 63.582 180.887 63.582 180.894C64.2677 180.815 91.2238 177.702 83.5089 147.878V147.865C83.5089 147.865 83.5089 147.865 83.5089 147.858C82.8297 147.937 55.867 151.049 63.582 180.874Z" fill="#071942"/>
<path d="M2.96388 68.1767H2.95069C2.95069 68.1767 2.95069 68.1767 2.94409 68.1767H2.95728C3.0496 69.0141 6.85431 101.852 43.1804 92.4424H43.1936C43.1936 92.4424 43.1936 92.4424 43.2002 92.4424H43.187C43.0947 91.605 39.29 58.7671 2.96388 68.1767Z" fill="#071942"/>
<path d="M22.4421 156.087H22.429C22.429 156.087 22.4355 156.101 22.4421 156.101C22.4421 156.101 22.4421 156.101 22.4421 156.107H22.4553C23.2136 156.457 53.3216 170.113 63.9709 134.13H63.9841C63.9841 134.13 63.9775 134.116 63.9709 134.116C63.9709 134.116 63.9709 134.116 63.9709 134.11H63.9577C63.1994 133.767 33.0914 120.104 22.4421 156.087Z" fill="#071942"/>
<path d="M0.280036 110.418H0.260255C0.260255 110.418 0.260255 110.418 0.260255 110.424C0.260255 110.424 0.260256 110.424 0.253662 110.424H0.26685C0.669081 111.209 16.877 141.891 48.8511 118.871H48.8709C48.8709 118.871 48.8709 118.871 48.8709 118.865C48.8709 118.865 48.8709 118.865 48.8775 118.865H48.8643C48.4621 118.086 32.2541 87.3916 0.280036 110.418Z" fill="#071942"/>
<path d="M217.267 8.32331V8.31012C217.749 8.67279 236.752 22.7113 217.992 41.8799V41.8931C217.511 41.5305 198.507 27.4919 217.267 8.32331Z" fill="#071942"/>
<path d="M243.643 30.2284V30.2152C243.643 30.2152 243.65 30.2152 243.656 30.2218C243.656 30.2218 243.656 30.2218 243.663 30.2218C243.992 30.835 256.811 54.7513 227.916 65.4269V65.4401C227.916 65.4401 227.91 65.4401 227.903 65.4335C227.903 65.4335 227.903 65.4335 227.897 65.4335C227.567 64.8203 214.748 40.904 243.643 30.2284Z" fill="#071942"/>
<path d="M202.925 180.874V180.887C202.925 180.887 202.925 180.887 202.925 180.894C202.24 180.815 175.284 177.702 182.998 147.878V147.865C182.998 147.865 182.998 147.865 182.998 147.858C183.678 147.937 210.64 151.049 202.925 180.874Z" fill="#071942"/>
<path d="M263.544 68.1767H263.557C263.557 68.1767 263.557 68.1767 263.563 68.1767H263.55C263.458 69.0141 259.653 101.852 223.327 92.4424H223.314C223.314 92.4424 223.314 92.4424 223.307 92.4424H223.321C223.413 91.605 227.218 58.7671 263.544 68.1767Z" fill="#071942"/>
<path d="M244.065 156.087H244.078C244.078 156.087 244.072 156.101 244.065 156.101C244.065 156.101 244.065 156.101 244.065 156.107H244.052C243.294 156.457 213.186 170.113 202.536 134.13H202.523C202.523 134.13 202.53 134.116 202.536 134.116C202.536 134.116 202.536 134.116 202.536 134.11H202.55C203.308 133.767 233.416 120.104 244.065 156.087Z" fill="#071942"/>
<path d="M266.227 110.418H266.247C266.247 110.418 266.247 110.418 266.247 110.424C266.247 110.424 266.247 110.424 266.254 110.424H266.241C265.838 111.209 249.63 141.891 217.656 118.871H217.636C217.636 118.871 217.636 118.871 217.636 118.865C217.636 118.865 217.636 118.865 217.63 118.865H217.643C218.045 118.086 234.253 87.3916 266.227 110.418Z" fill="#071942"/>
<path d="M87.9202 0.601807C95.4505 0.601807 101.59 6.62868 101.59 14.3898C101.59 22.1508 95.4505 28.5602 87.9202 28.5602C80.3899 28.5602 74.251 22.3421 74.251 14.3898C74.251 6.43746 80.3899 0.601807 87.9202 0.601807ZM87.9202 26.9776C94.5208 26.9776 99.8553 21.4915 99.8553 14.3898C99.8553 7.28808 94.5274 2.18436 87.9202 2.18436C81.3131 2.18436 75.9852 7.47271 75.9852 14.3898C75.9852 21.3068 81.3131 26.9776 87.9202 26.9776Z" fill="#071942"/>
<path d="M108.039 1.06989H115.958C118.47 1.06989 119.743 1.34024 120.824 1.88094C123.066 3.00191 124.57 5.27683 124.57 8.36939C124.57 12.2334 122.328 15.1282 119.163 15.8206V15.8997C119.163 15.8997 119.433 16.2096 119.782 16.8624L125.842 28.0985H123.871L117.461 16.1305H109.7V28.0985H108.039V1.06989ZM117.033 14.5809C120.587 14.5809 122.829 12.029 122.829 8.3628C122.829 5.96919 121.629 4.03716 119.664 3.14698C118.892 2.7975 118.042 2.60628 115.879 2.60628H109.7V14.5743H117.039L117.033 14.5809Z" fill="#071942"/>
<path d="M129.548 26.7863L144.417 5.0856C145.347 3.69428 146.27 2.61287 146.27 2.61287V2.53374C146.27 2.53374 145.651 2.61287 144.299 2.61287H130.359V1.06989H148.275V2.38208L133.406 24.0828C132.476 25.4741 131.553 26.5555 131.553 26.5555V26.6346C131.553 26.6346 132.172 26.5555 133.524 26.5555H148.394V28.0985H129.548V26.7863Z" fill="#071942"/>
<path d="M154.645 1.06989H169.435V2.61287H156.306V13.6973H167.081V15.2403H156.306V26.5555H170.167V28.0985H154.645V1.06989Z" fill="#071942"/>
<path d="M175.191 13.427L177.704 11.9961V1.06989H179.365V11.0333L183.81 8.44852V10.3014L179.365 12.8533V26.5621H192.263V28.1051H177.704V13.816L175.191 15.2469V13.4335V13.427Z" fill="#071942"/>
<path d="M108.349 174.023C108.349 168.372 116.083 167.567 116.083 163.848C116.083 162.279 114.896 161.224 113.241 161.224C111.164 161.224 110.043 163.242 110.043 163.242L108.415 162.141C108.415 162.141 109.845 159.134 113.4 159.134C116.308 159.134 118.385 160.947 118.385 163.684C118.385 168.886 110.848 169.691 110.808 173.297H118.635V175.223H108.461C108.395 174.794 108.349 174.392 108.349 174.01V174.023Z" fill="#071942"/>
<path d="M121.312 167.297C121.312 162.747 122.677 159.14 126.878 159.14C131.078 159.14 132.469 162.747 132.469 167.297C132.469 171.847 131.104 175.5 126.878 175.5C122.651 175.5 121.312 171.867 121.312 167.297ZM130.214 167.297C130.214 163.868 129.476 161.178 126.884 161.178C124.293 161.178 123.574 163.868 123.574 167.297C123.574 170.726 124.313 173.462 126.884 173.462C129.456 173.462 130.214 170.752 130.214 167.297Z" fill="#071942"/>
<path d="M135.113 174.023C135.113 168.372 142.848 167.567 142.848 163.848C142.848 162.279 141.661 161.224 140.006 161.224C137.929 161.224 136.808 163.242 136.808 163.242L135.179 162.141C135.179 162.141 136.61 159.134 140.164 159.134C143.072 159.134 145.149 160.947 145.149 163.684C145.149 168.886 137.612 169.691 137.573 173.297H145.4V175.223H135.225C135.159 174.794 135.113 174.392 135.113 174.01V174.023Z" fill="#071942"/>
<path d="M148.974 171.695C148.974 171.695 150.207 173.396 152.436 173.396C154.289 173.396 155.904 172.117 155.904 170.192C155.904 168.266 154.341 166.941 152.304 166.941C150.761 166.941 149.646 167.726 149.646 167.726L148.374 167.257L149.158 159.411H157.117V161.336H151.084L150.701 164.679C150.682 165.147 150.589 165.51 150.589 165.51H150.635C150.635 165.51 151.506 165.016 152.673 165.016C156.003 165.016 158.172 167.323 158.172 170.172C158.172 173.218 155.779 175.506 152.581 175.506C149.383 175.506 147.754 173.311 147.754 173.311L148.987 171.695H148.974Z" fill="#071942"/>
<path d="M85.5727 60.8772C90.0236 60.8772 93.5777 64.3984 93.5777 68.9284C93.5777 73.4585 90.0236 77.1775 85.5727 77.1775C81.1218 77.1775 77.5676 73.5442 77.5676 68.9284C77.5676 64.3126 81.1218 60.8772 85.5727 60.8772ZM85.5727 75.74C89.107 75.74 91.9688 72.7793 91.9688 68.9284C91.9688 65.0775 89.107 62.3147 85.5727 62.3147C82.0383 62.3147 79.1766 65.1633 79.1766 68.9284C79.1766 72.6936 82.0185 75.74 85.5727 75.74Z" fill="#071942"/>
<path d="M103.904 60.8772C107.663 60.8772 109.562 62.9147 109.562 62.9147L108.738 64.0555C108.738 64.0555 106.904 62.3081 103.95 62.3081C100.264 62.3081 97.6267 65.1765 97.6267 68.902C97.6267 72.6276 100.264 75.74 103.997 75.74C107.168 75.74 109.094 73.6299 109.094 73.6299L109.99 74.7311C109.99 74.7311 107.847 77.1775 103.977 77.1775C99.328 77.1775 96.0178 73.5244 96.0178 68.9284C96.0178 64.3324 99.4137 60.8772 103.911 60.8772H103.904Z" fill="#071942"/>
<path d="M113.34 61.141H114.883V68.3152H124.002V61.141H125.545V76.9005H124.002V69.7065H114.883V76.9005H113.34V61.141Z" fill="#071942"/>
<path d="M130.115 61.141H134.764C136.373 61.141 137.091 61.2992 137.718 61.5696C139.195 62.2224 140.085 63.7192 140.085 65.6249C140.085 67.7547 138.878 69.39 137.111 69.8846V69.9307C137.111 69.9307 137.269 70.1351 137.513 70.5572L140.936 76.9005H139.168L135.614 70.267H131.658V76.9005H130.115V61.141ZM135.39 68.8757C137.289 68.8757 138.496 67.6426 138.496 65.671C138.496 64.372 137.982 63.4093 137.065 62.9148C136.597 62.6708 136.036 62.5323 134.83 62.5323H131.658V68.8757H135.39Z" fill="#071942"/>
<path d="M151.084 60.8772C155.535 60.8772 159.089 64.3984 159.089 68.9284C159.089 73.4585 155.535 77.1775 151.084 77.1775C146.633 77.1775 143.079 73.5442 143.079 68.9284C143.079 64.3126 146.633 60.8772 151.084 60.8772ZM151.084 75.74C154.618 75.74 157.48 72.7793 157.48 68.9284C157.48 65.0775 154.618 62.3147 151.084 62.3147C147.549 62.3147 144.688 65.1633 144.688 68.9284C144.688 72.6936 147.53 75.74 151.084 75.74Z" fill="#071942"/>
<path d="M162.577 61.141H164.074L172.099 72.4826C172.633 73.2673 173.398 74.6124 173.398 74.6124H173.444C173.444 74.6124 173.312 73.3134 173.312 72.4826V61.141H174.855V76.9005H173.358L165.333 65.5589C164.799 64.7743 164.034 63.4291 164.034 63.4291H163.988C163.988 63.4291 164.12 64.7281 164.12 65.5589V76.9005H162.577V61.141Z" fill="#071942"/>
<path d="M182.768 70.1351L177.466 61.1476H179.233L182.563 66.8645C183.032 67.669 183.526 68.7504 183.526 68.7504H183.572C183.572 68.7504 184.04 67.6954 184.535 66.8645L187.865 61.1476H189.606L184.331 70.1351V76.9071H182.768V70.1351Z" fill="#071942"/>
<path d="M65.125 86.8574H73.3938V88.2487H66.6614V94.1701H72.4311V95.5614H66.6614V102.624H65.1184V86.864L65.125 86.8574Z" fill="#071942"/>
<path d="M76.6184 86.8574H78.1614V102.617H76.6184V86.8574Z" fill="#071942"/>
<path d="M82.7175 86.8574H84.2144L92.2392 98.199C92.7733 98.9837 93.5382 100.329 93.5382 100.329H93.5844C93.5844 100.329 93.4525 99.0299 93.4525 98.199V86.8574H94.9955V102.617H93.4986L85.4738 91.2754C84.9397 90.4907 84.1748 89.1455 84.1748 89.1455H84.1286C84.1286 89.1455 84.2605 90.4445 84.2605 91.2754V102.617H82.7175V86.8574Z" fill="#071942"/>
<path d="M107.313 97.599H100.99L99.2027 102.624H97.5674L103.337 86.864H104.992L110.762 102.624H109.133L107.32 97.599H107.313ZM104.142 88.4927C104.142 88.4927 103.805 89.7917 103.535 90.5303L101.431 96.2472H106.845L104.788 90.5303C104.517 89.7917 104.181 88.4927 104.181 88.4927H104.135H104.142Z" fill="#071942"/>
<path d="M113.333 86.8574H114.83L122.855 98.199C123.389 98.9837 124.154 100.329 124.154 100.329H124.2C124.2 100.329 124.068 99.0299 124.068 98.199V86.8574H125.611V102.617H124.115L116.09 91.2754C115.556 90.4907 114.791 89.1455 114.791 89.1455H114.745C114.745 89.1455 114.876 90.4445 114.876 91.2754V102.617H113.333V86.8574Z" fill="#071942"/>
<path d="M129.924 99.6826C129.924 99.6826 131.559 101.41 134.038 101.41C135.759 101.41 137.17 100.382 137.17 98.6738C137.17 94.7042 129.324 95.7131 129.324 90.827C129.324 88.5652 131.315 86.587 134.216 86.587C136.946 86.587 138.417 88.1102 138.417 88.1102L137.658 89.4092C137.658 89.4092 136.274 88.0641 134.216 88.0641C132.159 88.0641 130.906 89.3895 130.906 90.7742C130.906 94.5196 138.753 93.4447 138.753 98.621C138.753 100.975 136.94 102.881 133.992 102.881C130.774 102.881 129.007 100.863 129.007 100.863L129.924 99.676V99.6826Z" fill="#071942"/>
<path d="M149.125 86.5936C153.576 86.5936 157.13 90.1148 157.13 94.6448C157.13 99.1749 153.576 102.894 149.125 102.894C144.675 102.894 141.12 99.2606 141.12 94.6448C141.12 90.0291 144.675 86.5936 149.125 86.5936ZM149.125 101.456C152.66 101.456 155.522 98.4957 155.522 94.6448C155.522 90.794 152.66 88.0311 149.125 88.0311C145.591 88.0311 142.729 90.8797 142.729 94.6448C142.729 98.41 145.571 101.456 149.125 101.456Z" fill="#071942"/>
<path d="M168.584 89.1653C168.584 89.1653 168.34 90.5105 168.07 91.5194L165.076 102.617H163.223L159.155 86.8574H160.764L163.804 99.0958C164.001 99.9003 164.16 100.777 164.16 100.777H164.206C164.206 100.777 164.338 99.9003 164.562 99.0958L167.872 86.8574H169.349L172.659 99.0958C172.883 99.9003 172.996 100.777 173.015 100.777H173.061C173.061 100.777 173.22 99.9003 173.418 99.0958L176.569 86.8574H178.178L173.998 102.617H172.145L169.151 91.5194C168.881 90.5105 168.637 89.1653 168.637 89.1653H168.591H168.584Z" fill="#071942"/>
<path d="M181.284 86.8574H190.14V88.2487H182.827V93.9855H188.795V95.3768H182.827V101.226H190.542V102.617H181.284V86.8574Z" fill="#071942"/>
<path d="M192.553 97.5726H194.096V98.1529C194.096 100.573 195.547 101.45 196.978 101.45C198.409 101.45 199.84 100.645 199.84 98.199V88.2487H195.995V86.8574H201.383V98.199C201.383 101.608 199.127 102.881 196.958 102.881C194.789 102.881 192.553 101.582 192.553 98.199V97.5726Z" fill="#071942"/>
<path d="M44.7827 194.827H48.1918C49.3589 194.827 49.8469 194.919 50.2755 195.077C51.4096 195.506 52.1548 196.627 52.1548 198.097C52.1548 199.568 51.3635 200.722 50.1502 201.117V201.15C50.1502 201.15 50.2755 201.295 50.4799 201.658L52.8471 205.997H51.0799L48.7259 201.552H46.3389V205.997H44.7761V194.82L44.7827 194.827ZM48.5874 200.188C49.8007 200.188 50.559 199.409 50.559 198.163C50.559 197.339 50.2425 196.752 49.6754 196.436C49.3721 196.277 49.0094 196.185 48.1456 196.185H46.3455V200.188H48.5874Z" fill="#071942"/>
<path d="M59.8764 194.635C63.0942 194.635 65.5933 197.121 65.5933 200.333C65.5933 203.544 63.1008 206.188 59.8764 206.188C56.6519 206.188 54.1462 203.623 54.1462 200.333C54.1462 197.042 56.6585 194.635 59.8764 194.635ZM59.8764 204.75C62.1513 204.75 63.9778 202.851 63.9778 200.333C63.9778 197.814 62.1447 196.06 59.8764 196.06C57.6081 196.06 55.7552 197.893 55.7552 200.333C55.7552 202.772 57.6015 204.75 59.8764 204.75Z" fill="#071942"/>
<path d="M67.8616 194.827H71.5542C74.9633 194.827 77.2052 196.871 77.2052 200.399C77.2052 203.926 74.9633 206.003 71.5542 206.003H67.8616V194.827ZM71.4421 204.638C73.9544 204.638 75.5963 203.148 75.5963 200.399C75.5963 197.649 73.9412 196.192 71.4421 196.192H69.4243V204.645H71.4421V204.638Z" fill="#071942"/>
<path d="M78.5303 204.955L83.8978 197.2C84.3264 196.567 84.7022 196.172 84.7022 196.172V196.139C84.7022 196.139 84.4055 196.185 83.8648 196.185H78.8138V194.827H86.6408V195.855L81.2734 203.63C80.8448 204.249 80.4689 204.645 80.4689 204.645V204.678C80.4689 204.678 80.7722 204.645 81.3063 204.645H86.7068V206.003H78.5303V204.962V204.955Z" fill="#071942"/>
<path d="M88.9819 194.827H90.5447V206.003H88.9819V194.827Z" fill="#071942"/>
<path d="M93.5713 194.827H95.1209L100.08 202.093C100.488 202.693 101.009 203.709 101.009 203.709H101.042C101.042 203.709 100.93 202.713 100.93 202.093V194.827H102.493V206.003H100.963L95.9913 198.757C95.5825 198.137 95.0615 197.128 95.0615 197.128H95.0286C95.0286 197.128 95.1407 198.124 95.1407 198.757V206.003H93.5779V194.827H93.5713Z" fill="#071942"/>
<path d="M111.045 202.786H106.845L105.737 205.997H104.128L108.137 194.82H109.779L113.788 205.997H112.16L111.039 202.786H111.045ZM108.948 196.363C108.948 196.363 108.698 197.379 108.507 197.946L107.26 201.493H110.636L109.403 197.946C109.212 197.379 108.975 196.363 108.975 196.363H108.942H108.948Z" fill="#071942"/>
<path d="M119.492 194.827H123.389C125.268 194.827 126.627 195.868 126.627 197.675C126.627 198.77 126.093 199.64 125.236 200.082V200.115C126.403 200.464 127.069 201.572 127.069 202.819C127.069 204.922 125.44 205.997 123.488 205.997H119.492V194.82V194.827ZM123.389 199.528C124.398 199.528 125.031 198.816 125.031 197.833C125.031 196.851 124.431 196.185 123.356 196.185H121.048V199.522H123.383L123.389 199.528ZM123.561 204.638C124.761 204.638 125.473 203.88 125.473 202.739C125.473 201.599 124.715 200.827 123.547 200.827H121.055V204.638H123.567H123.561Z" fill="#071942"/>
<path d="M129.495 194.827H135.971V196.185H131.058V199.68H135.054V201.038H131.058V204.632H136.234V205.99H129.495V194.813V194.827Z" fill="#071942"/>
<path d="M137.671 204.955L143.039 197.2C143.467 196.567 143.843 196.172 143.843 196.172V196.139C143.843 196.139 143.54 196.185 143.006 196.185H137.955V194.827H145.789V195.855L140.421 203.63C139.992 204.249 139.617 204.645 139.617 204.645V204.678C139.617 204.678 139.913 204.645 140.454 204.645H145.854V206.003H137.678V204.962L137.671 204.955Z" fill="#071942"/>
<path d="M152.178 194.827H155.871C159.28 194.827 161.522 196.871 161.522 200.399C161.522 203.926 159.28 206.003 155.871 206.003H152.178V194.827ZM155.759 204.638C158.271 204.638 159.913 203.148 159.913 200.399C159.913 197.649 158.258 196.192 155.759 196.192H153.741V204.645H155.759V204.638Z" fill="#071942"/>
<path d="M163.289 200.24L164.219 199.7V194.827H165.782V198.816L167.503 197.82V199.357L165.782 200.352V204.638H170.773V205.997H164.219V201.236L163.289 201.777V200.24Z" fill="#071942"/>
<path d="M172.224 194.827H173.787V202.04C173.787 203.748 174.894 204.744 176.596 204.744C178.297 204.744 179.438 203.748 179.438 202.007V194.82H181V202.034C181 204.52 179.213 206.181 176.609 206.181C174.004 206.181 172.217 204.52 172.217 202.034V194.82L172.224 194.827Z" fill="#071942"/>
<path d="M188.814 194.635C191.485 194.635 192.87 195.981 192.87 195.981L192.078 197.154C192.078 197.154 190.832 196.06 188.94 196.06C186.322 196.06 184.739 197.972 184.739 200.366C184.739 202.964 186.506 204.751 188.841 204.751C190.766 204.751 191.999 203.359 191.999 203.359V201.744H190.186V200.385H193.424V206.003H192.052V205.304C192.052 205.067 192.065 204.83 192.065 204.83H192.032C192.032 204.83 190.819 206.188 188.603 206.188C185.603 206.188 183.124 203.814 183.124 200.392C183.124 197.161 185.557 194.629 188.808 194.629L188.814 194.635Z" fill="#071942"/>
<path d="M200.842 194.635C204.06 194.635 206.559 197.121 206.559 200.333C206.559 203.544 204.066 206.188 200.842 206.188C197.617 206.188 195.112 203.623 195.112 200.333C195.112 197.042 197.624 194.635 200.842 194.635ZM200.842 204.75C203.117 204.75 204.943 202.851 204.943 200.333C204.943 197.814 203.11 196.06 200.842 196.06C198.573 196.06 196.72 197.893 196.72 200.333C196.72 202.772 198.567 204.75 200.842 204.75ZM201.31 192.037H202.952L201.435 194.049H200.156L201.31 192.037Z" fill="#071942"/>
<path d="M215.408 194.827L217.584 203.023C217.742 203.643 217.821 204.21 217.821 204.21H217.854C217.854 204.21 217.9 203.623 218.059 203.023L220.109 194.827H221.718L218.797 206.003H216.984L215.058 198.757C214.867 198.045 214.729 197.174 214.729 197.174H214.696C214.696 197.174 214.551 198.045 214.366 198.757L212.441 206.003H210.627L207.785 194.827H209.394L211.366 203.023C211.511 203.623 211.57 204.21 211.57 204.21H211.603C211.603 204.21 211.682 203.643 211.84 203.023L214.016 194.827H215.408Z" fill="#071942"/>
</svg>
