<svg width="191" height="243" viewBox="0 0 191 243" fill="none" xmlns="http://www.w3.org/2000/svg">
<path d="M9.97449 214.294C5.05635 212.693 1.75171 208.141 1.75171 202.966V0.255493H189.037V202.966C189.037 208.141 185.733 212.693 180.815 214.293L95.3942 242.078L9.97449 214.294Z" fill="white"/>
<path d="M188.854 0.438535V202.966C188.854 208.061 185.601 212.544 180.759 214.119L95.3943 241.885L10.0311 214.12C5.1886 212.544 1.93522 208.062 1.93522 202.966V0.438535H188.854ZM189.22 0.0722046H1.56885V202.966C1.56885 208.22 4.924 212.843 9.9177 214.468L95.2809 242.233L95.3943 242.27L95.5076 242.233L180.872 214.468C185.865 212.843 189.22 208.22 189.22 202.966V0.0722046Z" fill="#003047"/>
<path d="M9.26489 39.36V202.965C9.26489 204.87 10.4905 206.559 12.3007 207.148L95.394 234.177L178.487 207.148C180.297 206.559 181.523 204.87 181.523 202.965V39.36H9.26489Z" fill="#D9C682"/>
<path d="M9.26489 39.36V202.965C9.26489 204.87 10.4905 206.559 12.3007 207.148L95.394 234.177L178.487 207.148C180.297 206.559 181.523 204.87 181.523 202.965V39.36H9.26489Z" fill="url(#paint0_linear_429_8123)" style="mix-blend-mode:soft-light"/>
<path d="M181.258 8H9V37.9243H181.258V8Z" fill="url(#paint1_linear_429_8123)"/>
<path d="M43.17 29.365C43.08 29.365 43.02 29.325 42.99 29.245L41.61 24.775C41.6 24.745 41.58 24.73 41.55 24.73H40.5C40.46 24.73 40.44 24.75 40.44 24.79V29.215C40.44 29.315 40.39 29.365 40.29 29.365H39.15C39.05 29.365 39 29.315 39 29.215V19.015C39 18.915 39.05 18.865 39.15 18.865H41.835C42.345 18.865 42.795 18.99 43.185 19.24C43.575 19.49 43.875 19.845 44.085 20.305C44.305 20.755 44.415 21.27 44.415 21.85C44.415 22.48 44.285 23.03 44.025 23.5C43.765 23.96 43.41 24.295 42.96 24.505C42.93 24.535 42.92 24.565 42.93 24.595L44.46 29.2L44.475 29.26C44.475 29.33 44.43 29.365 44.34 29.365H43.17ZM40.5 20.11C40.46 20.11 40.44 20.13 40.44 20.17V23.53C40.44 23.57 40.46 23.59 40.5 23.59H41.61C42.02 23.59 42.35 23.435 42.6 23.125C42.85 22.805 42.975 22.385 42.975 21.865C42.975 21.325 42.85 20.9 42.6 20.59C42.35 20.27 42.02 20.11 41.61 20.11H40.5Z" fill="white"/>
<path d="M48.3169 29.485C47.4969 29.485 46.8369 29.235 46.3369 28.735C45.8369 28.235 45.5869 27.57 45.5869 26.74V21.505C45.5869 20.675 45.8369 20.01 46.3369 19.51C46.8369 19 47.4969 18.745 48.3169 18.745C49.1469 18.745 49.8119 19 50.3119 19.51C50.8219 20.01 51.0769 20.675 51.0769 21.505V26.74C51.0769 27.57 50.8219 28.235 50.3119 28.735C49.8119 29.235 49.1469 29.485 48.3169 29.485ZM48.3169 28.24C48.7169 28.24 49.0369 28.11 49.2769 27.85C49.5169 27.58 49.6369 27.23 49.6369 26.8V21.43C49.6369 21 49.5169 20.655 49.2769 20.395C49.0369 20.125 48.7169 19.99 48.3169 19.99C47.9269 19.99 47.6119 20.125 47.3719 20.395C47.1419 20.655 47.0269 21 47.0269 21.43V26.8C47.0269 27.23 47.1419 27.58 47.3719 27.85C47.6119 28.11 47.9269 28.24 48.3169 28.24Z" fill="white"/>
<path d="M52.8756 29.365C52.7756 29.365 52.7256 29.315 52.7256 29.215V19.015C52.7256 18.915 52.7756 18.865 52.8756 18.865H55.3356C56.1656 18.865 56.8256 19.12 57.3156 19.63C57.8056 20.14 58.0506 20.83 58.0506 21.7V26.53C58.0506 27.4 57.8056 28.09 57.3156 28.6C56.8256 29.11 56.1656 29.365 55.3356 29.365H52.8756ZM54.1656 28.06C54.1656 28.1 54.1856 28.12 54.2256 28.12L55.3206 28.105C55.7006 28.105 56.0056 27.96 56.2356 27.67C56.4656 27.37 56.5856 26.965 56.5956 26.455V21.775C56.5956 21.265 56.4806 20.86 56.2506 20.56C56.0206 20.26 55.7106 20.11 55.3206 20.11H54.2256C54.1856 20.11 54.1656 20.13 54.1656 20.17V28.06Z" fill="white"/>
<path d="M59.4118 29.365C59.3118 29.365 59.2618 29.315 59.2618 29.215V28.21C59.2618 28.16 59.2768 28.1 59.3068 28.03L62.7868 20.185C62.7968 20.165 62.7968 20.15 62.7868 20.14C62.7768 20.12 62.7618 20.11 62.7418 20.11H59.4118C59.3118 20.11 59.2618 20.06 59.2618 19.96V19.015C59.2618 18.915 59.3118 18.865 59.4118 18.865H64.1968C64.2968 18.865 64.3468 18.915 64.3468 19.015V20.02C64.3468 20.06 64.3318 20.12 64.3018 20.2L60.8068 28.045C60.7968 28.065 60.7968 28.085 60.8068 28.105C60.8168 28.115 60.8318 28.12 60.8518 28.12H64.1968C64.2968 28.12 64.3468 28.17 64.3468 28.27V29.215C64.3468 29.315 64.2968 29.365 64.1968 29.365H59.4118Z" fill="white"/>
<path d="M65.9273 29.365C65.8273 29.365 65.7773 29.315 65.7773 29.215V19.015C65.7773 18.915 65.8273 18.865 65.9273 18.865H67.0673C67.1673 18.865 67.2173 18.915 67.2173 19.015V29.215C67.2173 29.315 67.1673 29.365 67.0673 29.365H65.9273Z" fill="white"/>
<path d="M73.3032 19.015C73.3032 18.915 73.3532 18.865 73.4532 18.865H74.5782C74.6782 18.865 74.7282 18.915 74.7282 19.015V29.215C74.7282 29.315 74.6782 29.365 74.5782 29.365H73.2882C73.2082 29.365 73.1532 29.325 73.1232 29.245L70.5732 22.39C70.5632 22.37 70.5482 22.365 70.5282 22.375C70.5082 22.375 70.4982 22.385 70.4982 22.405L70.5132 29.215C70.5132 29.315 70.4632 29.365 70.3632 29.365H69.2232C69.1232 29.365 69.0732 29.315 69.0732 29.215V19.015C69.0732 18.915 69.1232 18.865 69.2232 18.865H70.4982C70.5782 18.865 70.6332 18.905 70.6632 18.985L73.2282 25.84C73.2382 25.87 73.2532 25.885 73.2732 25.885C73.2932 25.875 73.3032 25.855 73.3032 25.825V19.015Z" fill="white"/>
<path d="M80.6979 29.365C80.6079 29.365 80.5529 29.32 80.5329 29.23L80.2029 27.505C80.2029 27.485 80.1929 27.47 80.1729 27.46C80.1629 27.45 80.1479 27.445 80.1279 27.445H77.6829C77.6629 27.445 77.6429 27.45 77.6229 27.46C77.6129 27.47 77.6079 27.485 77.6079 27.505L77.2929 29.23C77.2829 29.32 77.2279 29.365 77.1279 29.365H75.9879C75.9379 29.365 75.8979 29.35 75.8679 29.32C75.8479 29.29 75.8429 29.25 75.8529 29.2L78.0879 19C78.1079 18.91 78.1629 18.865 78.2529 18.865H79.5879C79.6879 18.865 79.7429 18.91 79.7529 19L82.0029 29.2V29.23C82.0029 29.32 81.9579 29.365 81.8679 29.365H80.6979ZM77.8629 26.245C77.8629 26.285 77.8779 26.305 77.9079 26.305H79.9029C79.9329 26.305 79.9479 26.285 79.9479 26.245L78.9279 20.92C78.9179 20.9 78.9079 20.89 78.8979 20.89C78.8879 20.89 78.8779 20.9 78.8679 20.92L77.8629 26.245Z" fill="white"/>
<path d="M91.584 26.5C91.584 27.41 91.324 28.115 90.804 28.615C90.294 29.115 89.619 29.365 88.779 29.365H86.274C86.174 29.365 86.124 29.315 86.124 29.215V19.015C86.124 18.915 86.174 18.865 86.274 18.865H88.569C89.479 18.865 90.189 19.105 90.699 19.585C91.219 20.055 91.479 20.745 91.479 21.655C91.479 22.735 91.094 23.48 90.324 23.89C90.274 23.92 90.269 23.945 90.309 23.965C90.709 24.205 91.019 24.54 91.239 24.97C91.469 25.4 91.584 25.91 91.584 26.5ZM87.624 20.11C87.584 20.11 87.564 20.13 87.564 20.17V23.35C87.564 23.39 87.584 23.41 87.624 23.41H88.584C89.054 23.41 89.419 23.27 89.679 22.99C89.939 22.7 90.069 22.3 90.069 21.79C90.069 21.26 89.939 20.85 89.679 20.56C89.419 20.26 89.054 20.11 88.584 20.11H87.624ZM88.659 28.105C89.119 28.105 89.479 27.95 89.739 27.64C90.009 27.33 90.144 26.89 90.144 26.32C90.144 25.74 90.014 25.29 89.754 24.97C89.494 24.64 89.134 24.475 88.674 24.475H87.624C87.584 24.475 87.564 24.495 87.564 24.535V28.045C87.564 28.085 87.584 28.105 87.624 28.105H88.659Z" fill="white"/>
<path d="M97.902 19.96C97.902 20.06 97.852 20.11 97.752 20.11H94.377C94.337 20.11 94.317 20.13 94.317 20.17V23.425C94.317 23.465 94.337 23.485 94.377 23.485H96.447C96.547 23.485 96.597 23.535 96.597 23.635V24.58C96.597 24.68 96.547 24.73 96.447 24.73H94.377C94.337 24.73 94.317 24.75 94.317 24.79V28.06C94.317 28.1 94.337 28.12 94.377 28.12H97.752C97.852 28.12 97.902 28.17 97.902 28.27V29.215C97.902 29.315 97.852 29.365 97.752 29.365H93.027C92.927 29.365 92.877 29.315 92.877 29.215V19.015C92.877 18.915 92.927 18.865 93.027 18.865H97.752C97.852 18.865 97.902 18.915 97.902 19.015V19.96Z" fill="white"/>
<path d="M99.0066 29.365C98.9066 29.365 98.8566 29.315 98.8566 29.215V28.21C98.8566 28.16 98.8716 28.1 98.9016 28.03L102.382 20.185C102.392 20.165 102.392 20.15 102.382 20.14C102.372 20.12 102.357 20.11 102.337 20.11H99.0066C98.9066 20.11 98.8566 20.06 98.8566 19.96V19.015C98.8566 18.915 98.9066 18.865 99.0066 18.865H103.792C103.892 18.865 103.942 18.915 103.942 19.015V20.02C103.942 20.06 103.927 20.12 103.897 20.2L100.402 28.045C100.392 28.065 100.392 28.085 100.402 28.105C100.412 28.115 100.427 28.12 100.447 28.12H103.792C103.892 28.12 103.942 28.17 103.942 28.27V29.215C103.942 29.315 103.892 29.365 103.792 29.365H99.0066Z" fill="white"/>
<path d="M108.525 29.365C108.425 29.365 108.375 29.315 108.375 29.215V19.015C108.375 18.915 108.425 18.865 108.525 18.865H110.985C111.815 18.865 112.475 19.12 112.965 19.63C113.455 20.14 113.7 20.83 113.7 21.7V26.53C113.7 27.4 113.455 28.09 112.965 28.6C112.475 29.11 111.815 29.365 110.985 29.365H108.525ZM109.815 28.06C109.815 28.1 109.835 28.12 109.875 28.12L110.97 28.105C111.35 28.105 111.655 27.96 111.885 27.67C112.115 27.37 112.235 26.965 112.245 26.455V21.775C112.245 21.265 112.13 20.86 111.9 20.56C111.67 20.26 111.36 20.11 110.97 20.11H109.875C109.835 20.11 109.815 20.13 109.815 20.17V28.06Z" fill="white"/>
<path d="M117.461 28.06C117.461 28.1 117.481 28.12 117.521 28.12H120.881C120.981 28.12 121.031 28.17 121.031 28.27V29.215C121.031 29.315 120.981 29.365 120.881 29.365H116.171C116.071 29.365 116.021 29.315 116.021 29.215V26.02C116.021 26 116.011 25.985 115.991 25.975C115.981 25.965 115.966 25.97 115.946 25.99L115.046 26.68C115.026 26.7 114.996 26.71 114.956 26.71C114.906 26.71 114.866 26.69 114.836 26.65L114.326 26.035C114.296 26.005 114.281 25.97 114.281 25.93C114.281 25.89 114.301 25.855 114.341 25.825L115.991 24.55C116.011 24.53 116.021 24.505 116.021 24.475V19.015C116.021 18.915 116.071 18.865 116.171 18.865H117.311C117.411 18.865 117.461 18.915 117.461 19.015V23.32C117.461 23.34 117.466 23.355 117.476 23.365C117.496 23.375 117.516 23.37 117.536 23.35L119.681 21.7C119.701 21.68 119.731 21.67 119.771 21.67C119.821 21.67 119.861 21.69 119.891 21.73L120.416 22.36C120.446 22.39 120.461 22.425 120.461 22.465C120.461 22.505 120.441 22.54 120.401 22.57L117.491 24.79C117.471 24.81 117.461 24.835 117.461 24.865V28.06Z" fill="white"/>
<path d="M124.77 29.485C123.95 29.485 123.29 29.215 122.79 28.675C122.3 28.125 122.055 27.405 122.055 26.515V19.015C122.055 18.915 122.105 18.865 122.205 18.865H123.345C123.445 18.865 123.495 18.915 123.495 19.015V26.665C123.495 27.135 123.61 27.515 123.84 27.805C124.08 28.095 124.39 28.24 124.77 28.24C125.16 28.24 125.47 28.095 125.7 27.805C125.94 27.515 126.06 27.135 126.06 26.665V19.015C126.06 18.915 126.11 18.865 126.21 18.865H127.35C127.45 18.865 127.5 18.915 127.5 19.015V26.515C127.5 27.405 127.25 28.125 126.75 28.675C126.25 29.215 125.59 29.485 124.77 29.485Z" fill="white"/>
<path d="M131.68 29.485C130.87 29.485 130.215 29.245 129.715 28.765C129.225 28.285 128.98 27.65 128.98 26.86V21.37C128.98 20.58 129.225 19.945 129.715 19.465C130.215 18.985 130.87 18.745 131.68 18.745C132.49 18.745 133.145 18.985 133.645 19.465C134.145 19.945 134.395 20.585 134.395 21.385V22.015C134.395 22.115 134.345 22.165 134.245 22.165H133.105C133.005 22.165 132.955 22.115 132.955 22.015V21.355C132.955 20.945 132.835 20.615 132.595 20.365C132.365 20.115 132.06 19.99 131.68 19.99C131.3 19.99 130.99 20.115 130.75 20.365C130.52 20.615 130.405 20.945 130.405 21.355V26.875C130.405 27.285 130.52 27.615 130.75 27.865C130.99 28.115 131.3 28.24 131.68 28.24C132.06 28.24 132.365 28.115 132.595 27.865C132.835 27.615 132.955 27.285 132.955 26.875V25.225C132.955 25.185 132.935 25.165 132.895 25.165H131.755C131.655 25.165 131.605 25.115 131.605 25.015V24.085C131.605 23.985 131.655 23.935 131.755 23.935H134.245C134.345 23.935 134.395 23.985 134.395 24.085V26.86C134.395 27.65 134.145 28.285 133.645 28.765C133.145 29.245 132.49 29.485 131.68 29.485Z" fill="white"/>
<path d="M138.566 29.485C137.746 29.485 137.086 29.235 136.586 28.735C136.086 28.235 135.836 27.57 135.836 26.74V21.505C135.836 20.675 136.086 20.01 136.586 19.51C137.086 19 137.746 18.745 138.566 18.745C139.396 18.745 140.061 19 140.561 19.51C141.071 20.01 141.326 20.675 141.326 21.505V26.74C141.326 27.57 141.071 28.235 140.561 28.735C140.061 29.235 139.396 29.485 138.566 29.485ZM138.566 28.24C138.966 28.24 139.286 28.11 139.526 27.85C139.766 27.58 139.886 27.23 139.886 26.8V21.43C139.886 21 139.766 20.655 139.526 20.395C139.286 20.125 138.966 19.99 138.566 19.99C138.176 19.99 137.861 20.125 137.621 20.395C137.391 20.655 137.276 21 137.276 21.43V26.8C137.276 27.23 137.391 27.58 137.621 27.85C137.861 28.11 138.176 28.24 138.566 28.24ZM137.921 17.905C137.861 17.905 137.821 17.89 137.801 17.86C137.781 17.82 137.786 17.775 137.816 17.725L138.746 16.105C138.796 16.035 138.856 16 138.926 16H139.841C139.901 16 139.941 16.02 139.961 16.06C139.981 16.09 139.976 16.13 139.946 16.18L138.836 17.815C138.796 17.875 138.736 17.905 138.656 17.905H137.921Z" fill="white"/>
<path d="M144.565 29.365C144.475 29.365 144.42 29.32 144.4 29.23L142.405 19.03V19C142.405 18.91 142.45 18.865 142.54 18.865H143.725C143.825 18.865 143.88 18.91 143.89 19L145.105 26.035C145.115 26.055 145.125 26.065 145.135 26.065C145.145 26.065 145.155 26.055 145.165 26.035L146.245 19C146.255 18.91 146.305 18.865 146.395 18.865H147.4C147.49 18.865 147.54 18.91 147.55 19L148.705 26.035C148.715 26.055 148.725 26.065 148.735 26.065C148.745 26.065 148.755 26.055 148.765 26.035L149.875 19C149.895 18.91 149.945 18.865 150.025 18.865H151.195C151.245 18.865 151.28 18.88 151.3 18.91C151.33 18.94 151.34 18.98 151.33 19.03L149.44 29.23C149.43 29.32 149.375 29.365 149.275 29.365H148.21C148.13 29.365 148.08 29.32 148.06 29.23L146.92 22.135C146.91 22.115 146.895 22.105 146.875 22.105C146.865 22.105 146.86 22.115 146.86 22.135L145.78 29.23C145.77 29.32 145.72 29.365 145.63 29.365H144.565Z" fill="white"/>
<path d="M82.1223 169.733H108.666" stroke="#194559" stroke-width="1.09952" stroke-linecap="round" stroke-linejoin="round"/>
<path d="M59.6078 204.214V202.802L67.664 194.912C68.4023 194.192 68.956 193.565 69.3251 193.03C69.6943 192.476 69.9434 191.959 70.0726 191.479C70.2018 190.999 70.2664 190.547 70.2664 190.123C70.2664 188.997 69.8788 188.111 69.1036 187.465C68.3469 186.819 67.2211 186.496 65.7261 186.496C64.5818 186.496 63.5667 186.671 62.6808 187.022C61.8133 187.373 61.0658 187.917 60.4383 188.655L59.0264 187.437C59.7831 186.551 60.7521 185.869 61.9333 185.389C63.1145 184.909 64.4341 184.669 65.8922 184.669C67.2026 184.669 68.3377 184.881 69.2974 185.306C70.2572 185.712 70.9954 186.312 71.5122 187.105C72.0475 187.899 72.3151 188.831 72.3151 189.901C72.3151 190.529 72.2228 191.147 72.0382 191.756C71.8721 192.365 71.5584 193.011 71.0969 193.694C70.654 194.359 69.9988 195.115 69.1313 195.964L61.7395 203.218L61.1858 202.443H73.201V204.214H59.6078ZM86.141 204.38C84.6461 204.38 83.3172 203.993 82.1544 203.218C80.9917 202.424 80.0781 201.298 79.4136 199.84C78.7492 198.364 78.417 196.592 78.417 194.525C78.417 192.458 78.7492 190.695 79.4136 189.237C80.0781 187.76 80.9917 186.635 82.1544 185.859C83.3172 185.066 84.6461 184.669 86.141 184.669C87.636 184.669 88.9649 185.066 90.1277 185.859C91.2904 186.635 92.204 187.76 92.8684 189.237C93.5513 190.695 93.8928 192.458 93.8928 194.525C93.8928 196.592 93.5513 198.364 92.8684 199.84C92.204 201.298 91.2904 202.424 90.1277 203.218C88.9649 203.993 87.636 204.38 86.141 204.38ZM86.141 202.553C87.2853 202.553 88.282 202.249 89.131 201.64C89.98 201.012 90.6444 200.108 91.1243 198.927C91.6042 197.727 91.8441 196.26 91.8441 194.525C91.8441 192.79 91.6042 191.332 91.1243 190.15C90.6444 188.951 89.98 188.046 89.131 187.437C88.282 186.81 87.2853 186.496 86.141 186.496C85.0336 186.496 84.0462 186.81 83.1788 187.437C82.3113 188.046 81.6376 188.951 81.1578 190.15C80.6779 191.332 80.438 192.79 80.438 194.525C80.438 196.26 80.6779 197.727 81.1578 198.927C81.6376 200.108 82.3113 201.012 83.1788 201.64C84.0462 202.249 85.0336 202.553 86.141 202.553ZM99.1559 204.214V202.802L107.212 194.912C107.95 194.192 108.504 193.565 108.873 193.03C109.242 192.476 109.492 191.959 109.621 191.479C109.75 190.999 109.815 190.547 109.815 190.123C109.815 188.997 109.427 188.111 108.652 187.465C107.895 186.819 106.769 186.496 105.274 186.496C104.13 186.496 103.115 186.671 102.229 187.022C101.361 187.373 100.614 187.917 99.9865 188.655L98.5745 187.437C99.3313 186.551 100.3 185.869 101.481 185.389C102.663 184.909 103.982 184.669 105.44 184.669C106.751 184.669 107.886 184.881 108.846 185.306C109.805 185.712 110.544 186.312 111.06 187.105C111.596 187.899 111.863 188.831 111.863 189.901C111.863 190.529 111.771 191.147 111.586 191.756C111.42 192.365 111.107 193.011 110.645 193.694C110.202 194.359 109.547 195.115 108.679 195.964L101.288 203.218L100.734 202.443H112.749V204.214H99.1559ZM124.138 204.38C122.753 204.38 121.434 204.159 120.179 203.716C118.924 203.255 117.927 202.646 117.189 201.889L118.158 200.311C118.767 200.957 119.597 201.492 120.649 201.917C121.72 202.341 122.873 202.553 124.11 202.553C125.753 202.553 126.998 202.193 127.847 201.474C128.715 200.735 129.149 199.776 129.149 198.594C129.149 197.764 128.945 197.053 128.539 196.463C128.152 195.854 127.487 195.383 126.546 195.051C125.605 194.718 124.313 194.552 122.67 194.552H118.545L119.542 184.835H130.145V186.607H120.345L121.369 185.638L120.511 193.777L119.487 192.781H123.113C125.07 192.781 126.638 193.02 127.82 193.5C129.001 193.98 129.85 194.654 130.367 195.521C130.902 196.37 131.17 197.367 131.17 198.511C131.17 199.6 130.911 200.597 130.394 201.501C129.878 202.387 129.102 203.089 128.069 203.605C127.035 204.122 125.725 204.38 124.138 204.38Z" fill="#0D3A50"/>
<path d="M33.4488 79.7455C33.4488 79.6244 33.4851 79.5275 33.5578 79.4548C33.6547 79.3579 33.7637 79.3095 33.8848 79.3095H38.0998C38.2209 79.3095 38.3178 79.3579 38.3905 79.4548C38.4874 79.5275 38.5359 79.6244 38.5359 79.7455V104.309C38.5359 104.43 38.4874 104.539 38.3905 104.636C38.3178 104.709 38.2209 104.745 38.0998 104.745H33.3034C33.0612 104.745 32.9037 104.624 32.8311 104.382L28.3254 90.3194C28.3011 90.2467 28.2527 90.2225 28.18 90.2467C28.1316 90.2467 28.1073 90.283 28.1073 90.3557L28.1437 104.309C28.1437 104.43 28.0952 104.539 27.9983 104.636C27.9257 104.709 27.8288 104.745 27.7076 104.745H23.4926C23.3715 104.745 23.2625 104.709 23.1656 104.636C23.0929 104.539 23.0566 104.43 23.0566 104.309V79.7455C23.0566 79.6244 23.0929 79.5275 23.1656 79.4548C23.2625 79.3579 23.3715 79.3095 23.4926 79.3095H28.2527C28.4949 79.3095 28.6524 79.4306 28.7251 79.6728L33.2671 93.735C33.2913 93.8076 33.3277 93.844 33.3761 93.844C33.4488 93.8198 33.4851 93.7713 33.4851 93.6986L33.4488 79.7455ZM52.4044 104.745C52.1137 104.745 51.9563 104.612 51.932 104.345L51.3507 100.857C51.3507 100.736 51.278 100.675 51.1326 100.675H46.5179C46.3726 100.675 46.2999 100.736 46.2999 100.857L45.7185 104.345C45.6943 104.612 45.5368 104.745 45.2462 104.745H40.9948C40.6799 104.745 40.5588 104.587 40.6314 104.273L45.9729 79.7092C46.0213 79.4427 46.1788 79.3095 46.4453 79.3095H51.3507C51.6171 79.3095 51.7746 79.4427 51.823 79.7092L57.1281 104.273L57.1645 104.418C57.1645 104.636 57.0312 104.745 56.7648 104.745H52.4044ZM47.0266 96.5329C47.0266 96.654 47.0751 96.7145 47.172 96.7145H50.4422C50.5634 96.7145 50.6118 96.654 50.5876 96.5329L48.8798 86.6131C48.8556 86.5404 48.8192 86.504 48.7708 86.504C48.7223 86.504 48.686 86.5404 48.6618 86.6131L47.0266 96.5329ZM65.3183 105.036C63.1865 105.036 61.4666 104.418 60.1585 103.182C58.8504 101.923 58.1964 100.263 58.1964 98.2043V95.6971C58.1964 95.576 58.2327 95.4791 58.3054 95.4064C58.4023 95.3095 58.5113 95.2611 58.6324 95.2611H62.8837C63.0049 95.2611 63.1018 95.3095 63.1744 95.4064C63.2713 95.4791 63.3198 95.576 63.3198 95.6971V98.277C63.3198 98.9795 63.5015 99.5488 63.8648 99.9848C64.2282 100.421 64.7127 100.639 65.3183 100.639C65.9481 100.639 66.4447 100.421 66.8081 99.9848C67.1956 99.5488 67.3894 98.9795 67.3894 98.277V79.7455C67.3894 79.6244 67.4258 79.5275 67.4985 79.4548C67.5953 79.3579 67.7044 79.3095 67.8255 79.3095H72.0768C72.1979 79.3095 72.2948 79.3579 72.3675 79.4548C72.4644 79.5275 72.5129 79.6244 72.5129 79.7455V98.2043C72.5129 100.263 71.8467 101.923 70.5144 103.182C69.2063 104.418 67.4742 105.036 65.3183 105.036ZM76.1519 104.745C76.0308 104.745 75.9218 104.709 75.8249 104.636C75.7522 104.539 75.7159 104.43 75.7159 104.309V79.7455C75.7159 79.6244 75.7522 79.5275 75.8249 79.4548C75.9218 79.3579 76.0308 79.3095 76.1519 79.3095H80.4032C80.5244 79.3095 80.6213 79.3579 80.6939 79.4548C80.7908 79.5275 80.8393 79.6244 80.8393 79.7455V100.166C80.8393 100.288 80.8998 100.348 81.021 100.348H88.6516C88.7727 100.348 88.8696 100.397 88.9423 100.494C89.0392 100.566 89.0876 100.663 89.0876 100.784V104.309C89.0876 104.43 89.0392 104.539 88.9423 104.636C88.8696 104.709 88.7727 104.745 88.6516 104.745H76.1519ZM104.523 83.2701C104.523 83.3912 104.474 83.5002 104.377 83.5971C104.305 83.6698 104.208 83.7061 104.087 83.7061H96.4923C96.3711 83.7061 96.3106 83.7667 96.3106 83.8878V89.629C96.3106 89.7501 96.3711 89.8107 96.4923 89.8107H100.853C100.974 89.8107 101.071 89.8591 101.143 89.956C101.24 90.0287 101.289 90.1256 101.289 90.2467V93.7713C101.289 93.8924 101.24 94.0014 101.143 94.0983C101.071 94.171 100.974 94.2073 100.853 94.2073H96.4923C96.3711 94.2073 96.3106 94.2679 96.3106 94.389V100.166C96.3106 100.288 96.3711 100.348 96.4923 100.348H104.087C104.208 100.348 104.305 100.397 104.377 100.494C104.474 100.566 104.523 100.663 104.523 100.784V104.309C104.523 104.43 104.474 104.539 104.377 104.636C104.305 104.709 104.208 104.745 104.087 104.745H91.6232C91.5021 104.745 91.3931 104.709 91.2962 104.636C91.2235 104.539 91.1872 104.43 91.1872 104.309V79.7455C91.1872 79.6244 91.2235 79.5275 91.2962 79.4548C91.3931 79.3579 91.5021 79.3095 91.6232 79.3095H104.087C104.208 79.3095 104.305 79.3579 104.377 79.4548C104.474 79.5275 104.523 79.6244 104.523 79.7455V83.2701ZM114.859 79.2731C116.192 79.2731 117.379 79.6001 118.42 80.2542C119.462 80.9083 120.261 81.8288 120.819 83.0158C121.4 84.1785 121.691 85.5109 121.691 87.0128C121.691 89.2656 121.085 91.0703 119.874 92.4269C118.663 93.7834 117.076 94.4617 115.114 94.4617H112.389C112.267 94.4617 112.207 94.5223 112.207 94.6434V104.309C112.207 104.43 112.158 104.539 112.062 104.636C111.989 104.709 111.892 104.745 111.771 104.745H107.519C107.398 104.745 107.289 104.709 107.192 104.636C107.12 104.539 107.083 104.43 107.083 104.309V79.7092C107.083 79.588 107.12 79.4911 107.192 79.4185C107.289 79.3216 107.398 79.2731 107.519 79.2731H114.859ZM113.987 90.4647C114.763 90.4647 115.38 90.174 115.841 89.5926C116.325 88.987 116.567 88.1634 116.567 87.1218C116.567 86.0559 116.325 85.2202 115.841 84.6146C115.38 84.009 114.763 83.7061 113.987 83.7061H112.389C112.267 83.7061 112.207 83.7667 112.207 83.8878V90.283C112.207 90.4041 112.267 90.4647 112.389 90.4647H113.987ZM130.551 105.036C129.146 105.036 127.911 104.757 126.845 104.2C125.779 103.643 124.955 102.867 124.374 101.874C123.792 100.857 123.502 99.6941 123.502 98.386V97.3323C123.502 97.2111 123.538 97.1142 123.611 97.0416C123.708 96.9447 123.817 96.8962 123.938 96.8962H128.116C128.238 96.8962 128.335 96.9447 128.407 97.0416C128.504 97.1142 128.553 97.2111 128.553 97.3323V98.1317C128.553 98.8826 128.746 99.4882 129.134 99.9485C129.522 100.409 130.006 100.639 130.587 100.639C131.169 100.639 131.653 100.421 132.041 99.9848C132.428 99.5488 132.622 98.9795 132.622 98.277C132.622 97.5503 132.38 96.9326 131.895 96.4239C131.411 95.8909 130.466 95.1158 129.061 94.0983C127.85 93.2263 126.869 92.4511 126.118 91.7728C125.367 91.0945 124.725 90.2588 124.192 89.2656C123.659 88.2724 123.393 87.1218 123.393 85.8137C123.393 83.7546 124.035 82.1074 125.319 80.8719C126.602 79.6365 128.298 79.0188 130.406 79.0188C132.537 79.0188 134.245 79.6607 135.529 80.9446C136.837 82.2285 137.491 83.9121 137.491 85.9953V86.8674C137.491 86.9885 137.443 87.0975 137.346 87.1944C137.273 87.2671 137.176 87.3034 137.055 87.3034H132.877C132.755 87.3034 132.646 87.2671 132.55 87.1944C132.477 87.0975 132.441 86.9885 132.441 86.8674V85.8863C132.441 85.1354 132.247 84.5419 131.859 84.1058C131.496 83.6456 131.011 83.4155 130.406 83.4155C129.824 83.4155 129.352 83.6335 128.989 84.0695C128.625 84.4813 128.444 85.0627 128.444 85.8137C128.444 86.5404 128.674 87.1823 129.134 87.7395C129.594 88.2966 130.503 89.0718 131.859 90.065C133.361 91.1793 134.487 92.0877 135.238 92.7902C136.014 93.4685 136.607 94.2316 137.019 95.0794C137.455 95.903 137.673 96.8962 137.673 98.059C137.673 100.191 137.019 101.886 135.711 103.146C134.403 104.406 132.683 105.036 130.551 105.036ZM139.72 104.745C139.599 104.745 139.49 104.709 139.393 104.636C139.32 104.539 139.284 104.43 139.284 104.309V100.639C139.284 100.445 139.32 100.263 139.393 100.094L147.169 83.9242C147.193 83.8515 147.193 83.803 147.169 83.7788C147.145 83.7304 147.096 83.7061 147.024 83.7061H139.72C139.599 83.7061 139.49 83.6698 139.393 83.5971C139.32 83.5002 139.284 83.3912 139.284 83.2701V79.7455C139.284 79.6244 139.32 79.5275 139.393 79.4548C139.49 79.3579 139.599 79.3095 139.72 79.3095H152.22C152.341 79.3095 152.438 79.3579 152.51 79.4548C152.607 79.5275 152.656 79.6244 152.656 79.7455V83.4155C152.656 83.585 152.619 83.7667 152.547 83.9605L144.771 100.13C144.747 100.203 144.747 100.263 144.771 100.312C144.795 100.336 144.843 100.348 144.916 100.348H152.22C152.341 100.348 152.438 100.397 152.51 100.494C152.607 100.566 152.656 100.663 152.656 100.784V104.309C152.656 104.43 152.607 104.539 152.51 104.636C152.438 104.709 152.341 104.745 152.22 104.745H139.72ZM165.813 104.745C165.523 104.745 165.365 104.612 165.341 104.345L164.76 100.857C164.76 100.736 164.687 100.675 164.542 100.675H159.927C159.782 100.675 159.709 100.736 159.709 100.857L159.128 104.345C159.103 104.612 158.946 104.745 158.655 104.745H154.404C154.089 104.745 153.968 104.587 154.04 104.273L159.382 79.7092C159.43 79.4427 159.588 79.3095 159.854 79.3095H164.76C165.026 79.3095 165.184 79.4427 165.232 79.7092L170.537 104.273L170.573 104.418C170.573 104.636 170.44 104.745 170.174 104.745H165.813ZM160.436 96.5329C160.436 96.654 160.484 96.7145 160.581 96.7145H163.851C163.972 96.7145 164.021 96.654 163.997 96.5329L162.289 86.6131C162.265 86.5404 162.228 86.504 162.18 86.504C162.131 86.504 162.095 86.5404 162.071 86.6131L160.436 96.5329Z" fill="#033249"/>
<path d="M50.8556 131.035C50.7879 131.035 50.727 131.014 50.6729 130.974C50.6323 130.92 50.612 130.86 50.612 130.793V117.16C50.612 117.093 50.6323 117.039 50.6729 116.999C50.727 116.945 50.7879 116.918 50.8556 116.918H53.2309C53.2985 116.918 53.3527 116.945 53.3933 116.999C53.4474 117.039 53.4745 117.093 53.4745 117.16V122.242C53.4745 122.296 53.488 122.329 53.5151 122.343C53.5557 122.343 53.5827 122.316 53.5963 122.262L56.2151 117.099C56.2828 116.978 56.3775 116.918 56.4993 116.918H59.0167C59.1114 116.918 59.1723 116.945 59.1994 116.999C59.24 117.039 59.24 117.106 59.1994 117.2L56.1948 123.008C56.1813 123.062 56.1745 123.102 56.1745 123.129L59.3618 130.752C59.3753 130.779 59.3821 130.819 59.3821 130.873C59.3821 130.981 59.3144 131.035 59.1791 131.035H56.6415C56.4926 131.035 56.3978 130.974 56.3572 130.853L54.2459 125.569C54.2324 125.529 54.2121 125.516 54.185 125.529C54.1579 125.529 54.1309 125.543 54.1038 125.569L53.5151 126.618C53.488 126.672 53.4745 126.712 53.4745 126.739V130.793C53.4745 130.86 53.4474 130.92 53.3933 130.974C53.3527 131.014 53.2985 131.035 53.2309 131.035H50.8556Z" fill="#033249"/>
<path d="M66.7113 131.035C66.5489 131.035 66.4609 130.961 66.4474 130.813L66.1226 128.877C66.1226 128.81 66.082 128.776 66.0008 128.776H63.4225C63.3413 128.776 63.3007 128.81 63.3007 128.877L62.9759 130.813C62.9624 130.961 62.8744 131.035 62.712 131.035H60.3367C60.1608 131.035 60.0931 130.947 60.1337 130.772L63.118 117.14C63.1451 116.992 63.233 116.918 63.3819 116.918H66.1226C66.2715 116.918 66.3594 116.992 66.3865 117.14L69.3505 130.772L69.3708 130.853C69.3708 130.974 69.2963 131.035 69.1475 131.035H66.7113ZM63.7067 126.477C63.7067 126.544 63.7338 126.578 63.7879 126.578H65.615C65.6827 126.578 65.7098 126.544 65.6963 126.477L64.7421 120.971C64.7286 120.931 64.7083 120.911 64.6812 120.911C64.6541 120.911 64.6338 120.931 64.6203 120.971L63.7067 126.477Z" fill="#033249"/>
<path d="M76.3426 117.16C76.3426 117.093 76.3629 117.039 76.4035 116.999C76.4577 116.945 76.5186 116.918 76.5863 116.918H78.9412C79.0089 116.918 79.063 116.945 79.1036 116.999C79.1577 117.039 79.1848 117.093 79.1848 117.16V130.793C79.1848 130.86 79.1577 130.92 79.1036 130.974C79.063 131.014 79.0089 131.035 78.9412 131.035H76.2614C76.1261 131.035 76.0381 130.967 75.9975 130.833L73.4802 123.028C73.4666 122.988 73.4396 122.975 73.399 122.988C73.3719 122.988 73.3584 123.008 73.3584 123.049L73.3787 130.793C73.3787 130.86 73.3516 130.92 73.2975 130.974C73.2569 131.014 73.2027 131.035 73.135 131.035H70.7801C70.7124 131.035 70.6515 131.014 70.5974 130.974C70.5568 130.92 70.5365 130.86 70.5365 130.793V117.16C70.5365 117.093 70.5568 117.039 70.5974 116.999C70.6515 116.945 70.7124 116.918 70.7801 116.918H73.4396C73.5749 116.918 73.6629 116.985 73.7035 117.12L76.2411 124.924C76.2547 124.964 76.275 124.985 76.302 124.985C76.3426 124.971 76.3629 124.944 76.3629 124.904L76.3426 117.16Z" fill="#033249"/>
<path d="M84.8016 131.196C83.5835 131.196 82.6023 130.84 81.8579 130.127C81.1271 129.401 80.7616 128.433 80.7616 127.223V120.689C80.7616 119.493 81.1271 118.538 81.8579 117.825C82.6023 117.113 83.5835 116.757 84.8016 116.757C86.0332 116.757 87.0144 117.113 87.7452 117.825C88.4896 118.538 88.8618 119.493 88.8618 120.689V120.911C88.8618 120.978 88.8347 121.039 88.7806 121.092C88.74 121.133 88.6859 121.153 88.6182 121.153L86.243 121.254C86.0805 121.254 85.9993 121.18 85.9993 121.032V120.508C85.9993 120.118 85.8911 119.802 85.6745 119.56C85.458 119.318 85.167 119.197 84.8016 119.197C84.4497 119.197 84.1655 119.318 83.9489 119.56C83.7324 119.802 83.6241 120.118 83.6241 120.508V127.465C83.6241 127.855 83.7324 128.171 83.9489 128.413C84.1655 128.641 84.4497 128.756 84.8016 128.756C85.167 128.756 85.458 128.641 85.6745 128.413C85.8911 128.171 85.9993 127.855 85.9993 127.465V126.921C85.9993 126.853 86.0196 126.8 86.0602 126.759C86.1144 126.705 86.1753 126.679 86.243 126.679L88.6182 126.779C88.6859 126.779 88.74 126.806 88.7806 126.86C88.8347 126.9 88.8618 126.954 88.8618 127.021V127.223C88.8618 128.433 88.4896 129.401 87.7452 130.127C87.0009 130.84 86.0196 131.196 84.8016 131.196Z" fill="#033249"/>
<path d="M97.8322 119.116C97.8322 119.183 97.8052 119.244 97.751 119.298C97.7104 119.338 97.6563 119.358 97.5886 119.358H93.3457C93.278 119.358 93.2442 119.392 93.2442 119.459V122.645C93.2442 122.712 93.278 122.746 93.3457 122.746H95.7818C95.8495 122.746 95.9036 122.773 95.9442 122.827C95.9984 122.867 96.0254 122.921 96.0254 122.988V124.944C96.0254 125.011 95.9984 125.072 95.9442 125.126C95.9036 125.166 95.8495 125.186 95.7818 125.186H93.3457C93.278 125.186 93.2442 125.22 93.2442 125.287V128.494C93.2442 128.561 93.278 128.594 93.3457 128.594H97.5886C97.6563 128.594 97.7104 128.621 97.751 128.675C97.8052 128.715 97.8322 128.769 97.8322 128.836V130.793C97.8322 130.86 97.8052 130.92 97.751 130.974C97.7104 131.014 97.6563 131.035 97.5886 131.035H90.6253C90.5576 131.035 90.4967 131.014 90.4426 130.974C90.402 130.92 90.3817 130.86 90.3817 130.793V117.16C90.3817 117.093 90.402 117.039 90.4426 116.999C90.4967 116.945 90.5576 116.918 90.6253 116.918H97.5886C97.6563 116.918 97.7104 116.945 97.751 116.999C97.8052 117.039 97.8322 117.093 97.8322 117.16V119.116Z" fill="#033249"/>
<path d="M99.5269 131.035C99.4592 131.035 99.3983 131.014 99.3442 130.974C99.3036 130.92 99.2833 130.86 99.2833 130.793V117.16C99.2833 117.093 99.3036 117.039 99.3442 116.999C99.3983 116.945 99.4592 116.918 99.5269 116.918H101.902C101.97 116.918 102.024 116.945 102.065 116.999C102.119 117.039 102.146 117.093 102.146 117.16V128.494C102.146 128.561 102.18 128.594 102.247 128.594H106.511C106.578 128.594 106.632 128.621 106.673 128.675C106.727 128.715 106.754 128.769 106.754 128.836V130.793C106.754 130.86 106.727 130.92 106.673 130.974C106.632 131.014 106.578 131.035 106.511 131.035H99.5269Z" fill="#033249"/>
<path d="M114.233 131.035C114.07 131.035 113.982 130.961 113.969 130.813L113.644 128.877C113.644 128.81 113.603 128.776 113.522 128.776H110.944C110.863 128.776 110.822 128.81 110.822 128.877L110.497 130.813C110.484 130.961 110.396 131.035 110.233 131.035H107.858C107.682 131.035 107.615 130.947 107.655 130.772L110.639 117.14C110.666 116.992 110.754 116.918 110.903 116.918H113.644C113.793 116.918 113.881 116.992 113.908 117.14L116.872 130.772L116.892 130.853C116.892 130.974 116.818 131.035 116.669 131.035H114.233ZM111.228 126.477C111.228 126.544 111.255 126.578 111.309 126.578H113.136C113.204 126.578 113.231 126.544 113.218 126.477L112.264 120.971C112.25 120.931 112.23 120.911 112.203 120.911C112.176 120.911 112.155 120.931 112.142 120.971L111.228 126.477Z" fill="#033249"/>
<path d="M123.661 131.035C123.512 131.035 123.417 130.967 123.377 130.833L121.814 125.267C121.787 125.213 121.753 125.186 121.712 125.186H121.022C120.954 125.186 120.92 125.22 120.92 125.287V130.793C120.92 130.86 120.893 130.92 120.839 130.974C120.799 131.014 120.744 131.035 120.677 131.035H118.302C118.234 131.035 118.173 131.014 118.119 130.974C118.078 130.92 118.058 130.86 118.058 130.793V117.16C118.058 117.093 118.078 117.039 118.119 116.999C118.173 116.945 118.234 116.918 118.302 116.918H122.402C123.147 116.918 123.81 117.099 124.392 117.462C124.974 117.812 125.42 118.309 125.732 118.955C126.057 119.6 126.219 120.34 126.219 121.173C126.219 121.966 126.063 122.665 125.752 123.27C125.454 123.875 125.035 124.346 124.493 124.682C124.466 124.696 124.446 124.716 124.432 124.743C124.419 124.756 124.419 124.776 124.432 124.803L126.3 130.752L126.321 130.833C126.321 130.967 126.246 131.035 126.097 131.035H123.661ZM121.022 119.358C120.954 119.358 120.92 119.392 120.92 119.459V122.907C120.92 122.975 120.954 123.008 121.022 123.008H121.935C122.355 123.008 122.693 122.847 122.951 122.524C123.221 122.188 123.357 121.744 123.357 121.193C123.357 120.629 123.221 120.185 122.951 119.862C122.693 119.526 122.355 119.358 121.935 119.358H121.022Z" fill="#033249"/>
<path d="M127.857 131.035C127.79 131.035 127.729 131.014 127.675 130.974C127.634 130.92 127.614 130.86 127.614 130.793V117.16C127.614 117.093 127.634 117.039 127.675 116.999C127.729 116.945 127.79 116.918 127.857 116.918H130.233C130.3 116.918 130.354 116.945 130.395 116.999C130.449 117.039 130.476 117.093 130.476 117.16V130.793C130.476 130.86 130.449 130.92 130.395 130.974C130.354 131.014 130.3 131.035 130.233 131.035H127.857Z" fill="#033249"/>
<path d="M138.261 131.035C138.099 131.035 138.011 130.961 137.997 130.813L137.672 128.877C137.672 128.81 137.632 128.776 137.551 128.776H134.972C134.891 128.776 134.85 128.81 134.85 128.877L134.526 130.813C134.512 130.961 134.424 131.035 134.262 131.035H131.887C131.711 131.035 131.643 130.947 131.684 130.772L134.668 117.14C134.695 116.992 134.783 116.918 134.932 116.918H137.672C137.821 116.918 137.909 116.992 137.936 117.14L140.9 130.772L140.921 130.853C140.921 130.974 140.846 131.035 140.697 131.035H138.261ZM135.257 126.477C135.257 126.544 135.284 126.578 135.338 126.578H137.165C137.232 126.578 137.26 126.544 137.246 126.477L136.292 120.971C136.278 120.931 136.258 120.911 136.231 120.911C136.204 120.911 136.184 120.931 136.17 120.971L135.257 126.477Z" fill="#033249"/>
<path d="M45.2517 151.363C44.0066 151.363 43.0118 151 42.2674 150.274C41.5231 149.548 41.1509 148.58 41.1509 147.37V140.916C41.1509 139.706 41.5231 138.738 42.2674 138.012C43.0118 137.286 44.0066 136.923 45.2517 136.923C46.4969 136.923 47.4916 137.286 48.236 138.012C48.9939 138.738 49.3729 139.706 49.3729 140.916V147.37C49.3729 148.58 48.9939 149.548 48.236 150.274C47.4916 151 46.4969 151.363 45.2517 151.363ZM45.2517 148.922C45.6307 148.922 45.9352 148.795 46.1653 148.539C46.3954 148.27 46.5104 147.921 46.5104 147.491V140.795C46.5104 140.365 46.3954 140.022 46.1653 139.767C45.9352 139.498 45.6307 139.363 45.2517 139.363C44.8728 139.363 44.5682 139.498 44.3382 139.767C44.1216 140.022 44.0133 140.365 44.0133 140.795V147.491C44.0133 147.921 44.1216 148.27 44.3382 148.539C44.5682 148.795 44.8728 148.922 45.2517 148.922Z" fill="#033249"/>
<path d="M51.193 151.201C51.1253 151.201 51.0644 151.181 51.0103 151.141C50.9697 151.087 50.9494 151.026 50.9494 150.959V137.327C50.9494 137.259 50.9697 137.206 51.0103 137.165C51.0644 137.111 51.1253 137.085 51.193 137.085H54.8675C56.0991 137.085 57.0871 137.441 57.8315 138.153C58.5758 138.866 58.948 139.814 58.948 140.997V147.289C58.948 148.472 58.5758 149.42 57.8315 150.132C57.0871 150.845 56.0991 151.201 54.8675 151.201H51.193ZM53.8118 148.66C53.8118 148.727 53.8457 148.761 53.9133 148.761L54.8269 148.741C55.1923 148.727 55.4901 148.573 55.7201 148.277C55.9502 147.981 56.072 147.591 56.0856 147.107V141.178C56.0856 140.668 55.9705 140.264 55.7404 139.968C55.5104 139.673 55.1991 139.525 54.8066 139.525H53.9133C53.8457 139.525 53.8118 139.558 53.8118 139.626V148.66Z" fill="#033249"/>
<path d="M60.7885 151.201C60.7208 151.201 60.6599 151.181 60.6058 151.141C60.5652 151.087 60.5449 151.026 60.5449 150.959V137.327C60.5449 137.259 60.5652 137.206 60.6058 137.165C60.6599 137.111 60.7208 137.085 60.7885 137.085H64.463C65.6946 137.085 66.6826 137.441 67.427 138.153C68.1713 138.866 68.5435 139.814 68.5435 140.997V147.289C68.5435 148.472 68.1713 149.42 67.427 150.132C66.6826 150.845 65.6946 151.201 64.463 151.201H60.7885ZM63.4073 148.66C63.4073 148.727 63.4412 148.761 63.5088 148.761L64.4224 148.741C64.7878 148.727 65.0855 148.573 65.3156 148.277C65.5457 147.981 65.6675 147.591 65.6811 147.107V141.178C65.6811 140.668 65.566 140.264 65.3359 139.968C65.1059 139.673 64.7946 139.525 64.4021 139.525H63.5088C63.4412 139.525 63.4073 139.558 63.4073 139.626V148.66Z" fill="#033249"/>
<path d="M74.4022 148.66C74.4022 148.727 74.436 148.761 74.5037 148.761H78.7669C78.8346 148.761 78.8887 148.788 78.9293 148.842C78.9835 148.882 79.0105 148.936 79.0105 149.003V150.959C79.0105 151.026 78.9835 151.087 78.9293 151.141C78.8887 151.181 78.8346 151.201 78.7669 151.201H71.7833C71.7156 151.201 71.6547 151.181 71.6006 151.141C71.56 151.087 71.5397 151.026 71.5397 150.959V147.511C71.5397 147.47 71.5262 147.444 71.4991 147.43C71.472 147.417 71.4449 147.423 71.4179 147.45L70.5449 148.156C70.4637 148.21 70.4096 148.237 70.3825 148.237C70.3284 148.237 70.2675 148.203 70.1998 148.136L69.1035 146.865C69.0494 146.785 69.0223 146.731 69.0223 146.704C69.0223 146.65 69.0562 146.59 69.1238 146.523L71.4788 144.587C71.5194 144.56 71.5397 144.519 71.5397 144.466V137.327C71.5397 137.259 71.56 137.206 71.6006 137.165C71.6547 137.111 71.7156 137.085 71.7833 137.085H74.1585C74.2262 137.085 74.2803 137.111 74.3209 137.165C74.3751 137.206 74.4022 137.259 74.4022 137.327V142.046C74.4022 142.086 74.4157 142.113 74.4428 142.126C74.4698 142.14 74.4969 142.133 74.524 142.106L76.8586 140.21C76.9398 140.157 76.9939 140.13 77.021 140.13C77.0751 140.13 77.136 140.163 77.2037 140.231L78.2797 141.521C78.3338 141.602 78.3609 141.656 78.3609 141.683C78.3609 141.736 78.327 141.797 78.2594 141.864L74.4631 144.97C74.4225 144.983 74.4022 145.024 74.4022 145.091V148.66Z" fill="#033249"/>
<path d="M84.1708 151.363C82.9528 151.363 81.9715 150.986 81.2272 150.233C80.4963 149.467 80.1309 148.452 80.1309 147.188V137.327C80.1309 137.259 80.1512 137.206 80.1918 137.165C80.2459 137.111 80.3068 137.085 80.3745 137.085H82.7497C82.8174 137.085 82.8716 137.111 82.9122 137.165C82.9663 137.206 82.9934 137.259 82.9934 137.327V147.47C82.9934 147.901 83.1016 148.25 83.3182 148.519C83.5347 148.788 83.8189 148.922 84.1708 148.922C84.5227 148.922 84.8002 148.788 85.0032 148.519C85.2197 148.25 85.328 147.901 85.328 147.47V137.327C85.328 137.259 85.3483 137.206 85.3889 137.165C85.443 137.111 85.5039 137.085 85.5716 137.085H87.9468C88.0145 137.085 88.0687 137.111 88.1093 137.165C88.1634 137.206 88.1905 137.259 88.1905 137.327V147.188C88.1905 148.452 87.8183 149.467 87.0739 150.233C86.3431 150.986 85.3754 151.363 84.1708 151.363Z" fill="#033249"/>
<path d="M89.6626 151.201C89.5949 151.201 89.534 151.181 89.4799 151.141C89.4393 151.087 89.419 151.026 89.419 150.959V148.922C89.419 148.815 89.4393 148.714 89.4799 148.62L93.8244 139.646C93.8379 139.605 93.8379 139.579 93.8244 139.565C93.8108 139.538 93.7838 139.525 93.7432 139.525H89.6626C89.5949 139.525 89.534 139.505 89.4799 139.464C89.4393 139.41 89.419 139.35 89.419 139.283V137.327C89.419 137.259 89.4393 137.206 89.4799 137.165C89.534 137.111 89.5949 137.085 89.6626 137.085H96.6462C96.7139 137.085 96.768 137.111 96.8086 137.165C96.8628 137.206 96.8898 137.259 96.8898 137.327V139.363C96.8898 139.458 96.8695 139.558 96.8289 139.666L92.4845 148.64C92.4709 148.68 92.4709 148.714 92.4845 148.741C92.498 148.754 92.5251 148.761 92.5657 148.761H96.6462C96.7139 148.761 96.768 148.788 96.8086 148.842C96.8628 148.882 96.8898 148.936 96.8898 149.003V150.959C96.8898 151.026 96.8628 151.087 96.8086 151.141C96.768 151.181 96.7139 151.201 96.6462 151.201H89.6626ZM93.1747 135.915C92.7146 135.915 92.3288 135.767 92.0176 135.471C91.7198 135.162 91.5709 134.779 91.5709 134.322C91.5709 133.851 91.7198 133.468 92.0176 133.172C92.3153 132.876 92.701 132.729 93.1747 132.729C93.6484 132.729 94.0341 132.876 94.3319 133.172C94.6296 133.468 94.7785 133.851 94.7785 134.322C94.7785 134.779 94.6229 135.162 94.3116 135.471C94.0138 135.767 93.6349 135.915 93.1747 135.915Z" fill="#033249"/>
<path d="M105.723 139.283C105.723 139.35 105.696 139.41 105.642 139.464C105.601 139.505 105.547 139.525 105.479 139.525H101.237C101.169 139.525 101.135 139.558 101.135 139.626V142.812C101.135 142.879 101.169 142.913 101.237 142.913H103.673C103.74 142.913 103.794 142.94 103.835 142.993C103.889 143.034 103.916 143.088 103.916 143.155V145.111C103.916 145.178 103.889 145.239 103.835 145.292C103.794 145.333 103.74 145.353 103.673 145.353H101.237C101.169 145.353 101.135 145.387 101.135 145.454V148.66C101.135 148.727 101.169 148.761 101.237 148.761H105.479C105.547 148.761 105.601 148.788 105.642 148.842C105.696 148.882 105.723 148.936 105.723 149.003V150.959C105.723 151.026 105.696 151.087 105.642 151.141C105.601 151.181 105.547 151.201 105.479 151.201H98.5162C98.4485 151.201 98.3876 151.181 98.3334 151.141C98.2928 151.087 98.2725 151.026 98.2725 150.959V137.327C98.2725 137.259 98.2928 137.206 98.3334 137.165C98.3876 137.111 98.4485 137.085 98.5162 137.085H105.479C105.547 137.085 105.601 137.111 105.642 137.165C105.696 137.206 105.723 137.259 105.723 137.327V139.283Z" fill="#033249"/>
<path d="M112.98 137.327C112.98 137.259 113.001 137.206 113.041 137.165C113.095 137.111 113.156 137.085 113.224 137.085H115.579C115.646 137.085 115.701 137.111 115.741 137.165C115.795 137.206 115.822 137.259 115.822 137.327V150.959C115.822 151.026 115.795 151.087 115.741 151.141C115.701 151.181 115.646 151.201 115.579 151.201H112.899C112.764 151.201 112.676 151.134 112.635 151L110.118 143.195C110.104 143.155 110.077 143.141 110.037 143.155C110.01 143.155 109.996 143.175 109.996 143.215L110.016 150.959C110.016 151.026 109.989 151.087 109.935 151.141C109.894 151.181 109.84 151.201 109.773 151.201H107.418C107.35 151.201 107.289 151.181 107.235 151.141C107.194 151.087 107.174 151.026 107.174 150.959V137.327C107.174 137.259 107.194 137.206 107.235 137.165C107.289 137.111 107.35 137.085 107.418 137.085H110.077C110.213 137.085 110.301 137.152 110.341 137.286L112.879 145.091C112.892 145.131 112.913 145.151 112.94 145.151C112.98 145.138 113.001 145.111 113.001 145.071L112.98 137.327Z" fill="#033249"/>
<path d="M117.846 151.201C117.778 151.201 117.717 151.181 117.663 151.141C117.623 151.087 117.602 151.026 117.602 150.959V137.327C117.602 137.259 117.623 137.206 117.663 137.165C117.717 137.111 117.778 137.085 117.846 137.085H120.221C120.289 137.085 120.343 137.111 120.384 137.165C120.438 137.206 120.465 137.259 120.465 137.327V150.959C120.465 151.026 120.438 151.087 120.384 151.141C120.343 151.181 120.289 151.201 120.221 151.201H117.846Z" fill="#033249"/>
<path d="M126.179 151.363C124.934 151.363 123.939 151 123.195 150.274C122.45 149.548 122.078 148.58 122.078 147.37V140.916C122.078 139.706 122.45 138.738 123.195 138.012C123.939 137.286 124.934 136.923 126.179 136.923C127.424 136.923 128.419 137.286 129.163 138.012C129.921 138.738 130.3 139.706 130.3 140.916V147.37C130.3 148.58 129.921 149.548 129.163 150.274C128.419 151 127.424 151.363 126.179 151.363ZM126.179 148.922C126.558 148.922 126.862 148.795 127.092 148.539C127.323 148.27 127.438 147.921 127.438 147.491V140.795C127.438 140.365 127.323 140.022 127.092 139.767C126.862 139.498 126.558 139.363 126.179 139.363C125.8 139.363 125.495 139.498 125.265 139.767C125.049 140.022 124.941 140.365 124.941 140.795V147.491C124.941 147.921 125.049 148.27 125.265 148.539C125.495 148.795 125.8 148.922 126.179 148.922Z" fill="#033249"/>
<path d="M134.394 151.201C134.245 151.201 134.158 151.127 134.13 150.979L131.39 137.347L131.369 137.266C131.369 137.145 131.444 137.085 131.593 137.085H134.07C134.232 137.085 134.32 137.159 134.333 137.306L135.491 144.566C135.504 144.62 135.524 144.647 135.552 144.647C135.579 144.647 135.599 144.62 135.612 144.566L136.709 137.306C136.722 137.159 136.81 137.085 136.973 137.085H139.023C139.185 137.085 139.273 137.159 139.287 137.306L140.485 144.566C140.498 144.62 140.519 144.647 140.546 144.647C140.573 144.647 140.593 144.62 140.607 144.566L141.642 137.306C141.655 137.159 141.743 137.085 141.906 137.085H144.301C144.477 137.085 144.552 137.172 144.525 137.347L141.946 150.979C141.933 151.127 141.845 151.201 141.682 151.201H139.49C139.328 151.201 139.24 151.127 139.226 150.979L138.028 143.518C138.015 143.464 137.994 143.437 137.967 143.437C137.94 143.437 137.92 143.464 137.906 143.518L136.831 150.979C136.817 151.127 136.729 151.201 136.567 151.201H134.394Z" fill="#033249"/>
<path d="M150.295 151.201C150.133 151.201 150.045 151.127 150.032 150.979L149.707 149.043C149.707 148.976 149.666 148.943 149.585 148.943H147.007C146.925 148.943 146.885 148.976 146.885 149.043L146.56 150.979C146.546 151.127 146.459 151.201 146.296 151.201H143.921C143.745 151.201 143.677 151.114 143.718 150.939L146.702 137.306C146.729 137.159 146.817 137.085 146.966 137.085H149.707C149.856 137.085 149.944 137.159 149.971 137.306L152.935 150.939L152.955 151.02C152.955 151.141 152.88 151.201 152.732 151.201H150.295ZM147.291 146.644C147.291 146.711 147.318 146.744 147.372 146.744H149.199C149.267 146.744 149.294 146.711 149.28 146.644L148.326 141.138C148.313 141.098 148.292 141.078 148.265 141.078C148.238 141.078 148.218 141.098 148.204 141.138L147.291 146.644Z" fill="#033249"/>
<defs>
<linearGradient id="paint0_linear_429_8123" x1="25.7579" y1="54.681" x2="163.862" y2="208.544" gradientUnits="userSpaceOnUse">
<stop/>
<stop offset="0.08616" stop-color="#393939"/>
<stop offset="0.20096" stop-color="#7E7E7E"/>
<stop offset="0.30457" stop-color="#B5B5B5"/>
<stop offset="0.39319" stop-color="#DDDDDD"/>
<stop offset="0.46335" stop-color="#F6F6F6"/>
<stop offset="0.50634" stop-color="white"/>
<stop offset="0.54825" stop-color="#F6F6F6"/>
<stop offset="0.61665" stop-color="#DDDDDD"/>
<stop offset="0.70306" stop-color="#B5B5B5"/>
<stop offset="0.80407" stop-color="#7E7E7E"/>
<stop offset="0.91599" stop-color="#393939"/>
<stop offset="1"/>
</linearGradient>
<linearGradient id="paint1_linear_429_8123" x1="212.389" y1="55.2321" x2="-21.0501" y2="-9.01035" gradientUnits="userSpaceOnUse">
<stop offset="0.116" stop-color="#003047"/>
<stop offset="0.32445" stop-color="#0F3C52"/>
<stop offset="0.55143" stop-color="#264F63"/>
<stop offset="0.65017" stop-color="#164257"/>
<stop offset="0.79414" stop-color="#05344B"/>
<stop offset="0.90334" stop-color="#003047"/>
</linearGradient>
</defs>
</svg>
