<svg xmlns="http://www.w3.org/2000/svg" width="87" height="86" fill="none" viewBox="0 0 87 86">
  <rect width="61.725" height="17.118" x="18.773" y="57.882" fill="#fff" stroke="#0C2E70" stroke-width="2" rx="1"/>
  <rect width="43.882" height="17.118" x="36.617" y="34.941" fill="#fff" stroke="#0C2E70" stroke-width="2" rx="1"/>
  <rect width="17.118" height="17.118" x="63.381" y="12" fill="#CCD5E6" stroke="#0C2E70" stroke-width="2" rx="1"/>
  <path fill="#0C2E70" d="M7.882 75.605a1 1 0 0 0 1.94-.485l-1.94.485Zm47.443-54.877a1 1 0 0 0 .215-1.398l-5.322-7.257a1 1 0 0 0-1.613 1.182l4.73 6.451-6.45 4.731a1 1 0 1 0 1.182 1.613l7.258-5.322Zm-32.557 21.14.328.944-.328-.944Zm.708-1.126-.991.133.99-.133ZM8.852 75.362l.97-.242c-.655-2.62-2.764-8.796-1.987-15.325.385-3.236 1.48-6.52 3.808-9.463 2.327-2.941 5.937-5.604 11.453-7.52l-.328-.944-.328-.945c-5.812 2.018-9.763 4.88-12.366 8.168-2.601 3.288-3.806 6.942-4.225 10.467-.832 6.992 1.428 13.63 2.033 16.047l.97-.242Zm14.624-34.62.99-.132c-.468-3.502-.554-9.573 3.14-14.165 3.635-4.52 11.239-7.956 26.976-5.535l.152-.988.152-.989c-16.052-2.47-24.554.932-28.84 6.259-4.227 5.255-4.049 12.04-3.561 15.683l.99-.133Zm-.708 1.126.328.944c.896-.31 1.503-1.217 1.37-2.202l-.99.133-.991.132v.003a.05.05 0 0 1-.007.015.075.075 0 0 1-.038.03l.328.945Z"/>
</svg>
