<svg xmlns="http://www.w3.org/2000/svg" width="86" height="86" fill="none" viewBox="0 0 86 86">
  <path fill="#fff" stroke="#0C2E70" stroke-linecap="round" stroke-linejoin="round" stroke-width="2" d="M67.2 75.48V21.224a1.92 1.92 0 0 0-.598-1.392L55.756 9.528A1.92 1.92 0 0 0 54.433 9H13.92C12.86 9 12 9.86 12 10.92v64.56c0 1.06.86 1.92 1.92 1.92h51.36c1.06 0 1.92-.86 1.92-1.92Z"/>
  <path stroke="#0C2E70" stroke-linecap="round" stroke-linejoin="round" stroke-width="2" d="M41.111 60.6h19.2m-19.2 5.76h12"/>
  <path fill="#CCD5E6" stroke="#0C2E70" stroke-linecap="round" stroke-linejoin="round" stroke-width="2" d="M72.207 24.6H20.4A2.4 2.4 0 0 0 18 27v20.028a2.4 2.4 0 0 0 2.4 2.4h51.807a2.4 2.4 0 0 0 2.4-2.4V27a2.4 2.4 0 0 0-2.4-2.4Z"/>
  <path stroke="#0C2E70" stroke-linecap="round" stroke-linejoin="round" stroke-width="2" d="M44.053 33.853h22.08m-22.08 5.76h13.44"/>
  <path fill="#0C2E70" d="M32.09 39.388H28.2l-.644 1.862h-2.058l3.514-9.786h2.282l3.514 9.786h-2.072l-.644-1.862Zm-.531-1.568-1.414-4.088-1.414 4.088h2.828Zm-1.916 25.418a2.2 2.2 0 0 1 1.358.826c.354.448.532.961.532 1.54 0 .523-.13.985-.392 1.386-.252.392-.62.7-1.106.924-.486.224-1.06.336-1.722.336h-4.214v-9.772h4.032c.663 0 1.232.107 1.708.322.485.215.85.513 1.092.896.252.383.378.817.378 1.302 0 .57-.154 1.045-.462 1.428-.299.383-.7.653-1.204.812Zm-3.584-.728h1.792c.466 0 .826-.103 1.078-.308.252-.215.378-.518.378-.91s-.126-.695-.378-.91c-.252-.215-.611-.322-1.078-.322h-1.792v2.45Zm1.974 4.144c.476 0 .845-.112 1.106-.336.27-.224.406-.541.406-.952 0-.42-.14-.747-.42-.98-.28-.243-.658-.364-1.134-.364h-1.932v2.632h1.974Z"/>
</svg>
