<svg xmlns="http://www.w3.org/2000/svg" width="86" height="86" fill="none" viewBox="0 0 86 86">
  <path fill="#fff" stroke="#0C2E70" stroke-linecap="round" stroke-linejoin="round" stroke-width="2" d="M73 75.798V17.282c0-.606-.25-1.184-.689-1.6L60.593 4.602A2.202 2.202 0 0 0 59.08 4H15.203A2.202 2.202 0 0 0 13 6.202v69.596c0 1.216.986 2.202 2.202 2.202h55.596A2.202 2.202 0 0 0 73 75.798Z"/>
  <path stroke="#0C2E70" stroke-linecap="round" stroke-linejoin="round" stroke-width="2" d="M24 23.733h22.016M24 29.467h13.76M24 18h22.016"/>
  <path fill="#CCD5E6" stroke="#0C2E70" stroke-width="2" d="M40.335 37.658c8.386 1.903 14.948-2.247 18.55-6.021.689-.721 2.115-.248 2.115.748V72.58c0 .692-.688 1.173-1.326.905-15.202-6.37-19.997-24.922-20.613-34.809-.043-.678.611-1.168 1.274-1.018Zm41.33 0c-8.386 1.903-14.948-2.247-18.55-6.021-.689-.721-2.115-.248-2.115.748V72.58c0 .692.688 1.173 1.326.905 15.202-6.37 19.997-24.922 20.613-34.809.043-.678-.611-1.168-1.274-1.018Z"/>
</svg>
