<svg xmlns="http://www.w3.org/2000/svg" width="87" height="86" fill="none" viewBox="0 0 87 86">
  <path stroke="#0C2E70" stroke-width="2" d="M62.469 25.933v-8.848c0-6.273-5.71-10.997-11.872-9.823l-37.135 7.075a10 10 0 0 0-8.128 9.823v1.773m0 0v40.658c0 5.523 4.477 10 10 10h49.318c5.523 0 10-4.477 10-10V35.933c0-5.523-4.477-10-10-10H5.334Z"/>
  <path fill="#fff" stroke="#0C2E70" stroke-width="2" d="M65.276 43.5h14.341v15.046h-14.34a7.523 7.523 0 0 1 0-15.046Z"/>
  <circle cx="66.413" cy="51.023" r="2.977" stroke="#0C2E70" stroke-width="2"/>
  <path fill="#CCD5E6" stroke="#0C2E70" stroke-linecap="round" stroke-linejoin="round" stroke-width="2" d="M14.426 66.364C14.426 73.894 20.53 80 28.062 80 35.593 80 41.7 73.895 41.7 66.364c0-7.532-6.106-13.637-13.637-13.637-7.531 0-13.636 6.106-13.636 13.637Z"/>
  <path stroke="#0C2E70" stroke-linecap="round" stroke-linejoin="round" stroke-width="2" d="m22.379 65.859 4.87 5.05 8.766-9.09"/>
</svg>
