<svg xmlns="http://www.w3.org/2000/svg" width="87" height="86" fill="none" viewBox="0 0 87 86">
  <path stroke="#0C2E70" stroke-linecap="round" stroke-linejoin="round" stroke-width="2" d="M73.5 60.318V18.035c0-.605-.25-1.184-.69-1.6l-8.284-7.833A2.202 2.202 0 0 0 63.014 8H31.496a2.202 2.202 0 0 0-2.201 2.202v50.116c0 1.215.986 2.201 2.201 2.201h39.802a2.202 2.202 0 0 0 2.202-2.201Z"/>
  <path fill="#fff" d="M28.15 67.617 18.41 50.43a1.434 1.434 0 0 0-.452-.486l-.1-.066a1.353 1.353 0 0 1 .844-2.475l16.92 1.167c1.737.12 3.412.69 4.86 1.655l3.78 2.52a9.125 9.125 0 0 0 5.062 1.533h6.14c.51 0 1.017.056 1.515.166l2.77.616a3.444 3.444 0 0 1 2.698 3.362v2.56a.49.49 0 0 1-.144.346c-.386.387.054 1.02.551.793l14.097-6.462c1.152-.46 3.592-1.381 4.145-1.381.552 0 1.611 1.381 2.072 2.072l.202.304a4.04 4.04 0 0 1-1.645 5.899L53.055 76.01a10 10 0 0 1-7.613.365l-11.955-4.27a10 10 0 0 1-5.337-4.487Z"/>
  <path fill="#CCD5E6" stroke="#0C2E70" stroke-linecap="round" stroke-linejoin="round" stroke-width="2" d="M38.963 33.556c0 7.248 5.875 13.123 13.123 13.123 7.248 0 13.124-5.875 13.124-13.123 0-7.248-5.876-13.123-13.124-13.123s-13.123 5.875-13.123 13.123Z"/>
  <path stroke="#0C2E70" stroke-linecap="round" stroke-linejoin="round" stroke-width="2" d="m45.666 33.04 4.87 5.05L59.302 29"/>
  <rect width="16.577" height="27.628" x="1.666" y="54.92" stroke="#0C2E70" stroke-linecap="round" stroke-linejoin="round" stroke-width="2" rx="1" transform="rotate(-29.358 1.666 54.92)"/>
  <path stroke="#0C2E70" stroke-linecap="round" stroke-linejoin="round" stroke-width="2" d="M16.77 47.715h16.364a15 15 0 0 1 12.289 6.398l.057.083a1 1 0 0 0 .82.426h12.257a4.49 4.49 0 0 1 4.49 4.49v0a4.49 4.49 0 0 1-4.49 4.49H40.944"/>
  <path stroke="#0C2E70" stroke-linecap="round" stroke-linejoin="round" stroke-width="2" d="m60.285 63.602 17.696-8.563a4.334 4.334 0 0 1 5.692 1.826v0a4.334 4.334 0 0 1-1.897 5.966L54.394 76.254a10 10 0 0 1-7.746.445l-17.445-6.19"/>
</svg>
