<svg xmlns="http://www.w3.org/2000/svg" width="87" height="86" fill="none" viewBox="0 0 87 86">
  <g clip-path="url(#a)">
    <path stroke="#0C2E70" stroke-width="2" d="M26.622 95V77.28a3 3 0 0 0-.878-2.121l-8.362-8.362a3 3 0 0 1-.854-1.74l-3.966-30.93a3 3 0 0 1 2.976-3.382h3.54a3 3 0 0 1 2.823 1.984l6.767 18.797a3 3 0 0 0 2.652 1.979l27.352 1.563a3 3 0 0 0 3.048-2.143L67.475 33.5a3 3 0 0 1 3.604-2.059l2.001.5a3 3 0 0 1 2.264 3.141L72.906 66.78a3 3 0 0 1-.87 1.89l-6.49 6.49a3 3 0 0 0-.878 2.121V95"/>
    <circle cx="45.102" cy="55.264" r="15.909" fill="#fff" stroke="#0C2E70" stroke-width="2"/>
    <path fill="#CCD5E6" stroke="#0C2E70" stroke-linecap="round" stroke-linejoin="round" stroke-width="2" d="M23.965 19.859c0 6.127 4.967 11.095 11.095 11.095 6.128 0 11.095-4.968 11.095-11.095 0-6.128-4.967-11.095-11.095-11.095-6.128 0-11.095 4.967-11.095 11.095Zm26.209-6.764c0 6.128 4.967 11.095 11.095 11.095 6.128 0 11.095-4.967 11.095-11.095C72.364 6.967 67.397 2 61.27 2c-6.128 0-11.095 4.967-11.095 11.095Z"/>
    <path stroke="#0C2E70" stroke-linecap="round" stroke-linejoin="round" stroke-width="2" d="m29.63 19.423 4.118 4.27 7.412-7.686m14.68-3.347 4.117 4.27 7.412-7.687"/>
    <path stroke="#0C2E70" stroke-linecap="square" stroke-linejoin="round" stroke-width="2" d="M36.647 55.686v0a8.454 8.454 0 0 0 8.454 8.455v0a8.455 8.455 0 0 0 8.455-8.455v-.422"/>
  </g>
  <defs>
    <clipPath id="a">
      <path fill="#fff" d="M.334 0h86v86h-86z"/>
    </clipPath>
  </defs>
</svg>
