<svg xmlns="http://www.w3.org/2000/svg" width="87" height="86" fill="none" viewBox="0 0 87 86">
  <path fill="#fff" stroke="#0C2E70" stroke-width="2" d="M50.013 15.532a1 1 0 0 1 1.653-.117l.078.117 12.207 21.142a1 1 0 0 1-.866 1.5H38.672a1 1 0 0 1-.929-1.373l.063-.127 12.207-21.142Z"/>
  <path fill="#0C2E70" d="m52.666 23.64-.256 7.728h-1.888l-.272-7.728h2.416Zm-1.152 11.472c-.405 0-.741-.123-1.008-.368a1.283 1.283 0 0 1-.384-.944c0-.373.128-.683.384-.928.267-.256.603-.384 1.008-.384.395 0 .72.128.976.384.256.245.384.555.384.928s-.128.688-.384.944c-.256.245-.581.368-.976.368Z"/>
  <path stroke="#0C2E70" stroke-linecap="round" stroke-linejoin="round" stroke-width="2" d="M77.215 69.568V17.91c0-.605-.25-1.184-.689-1.6L66.26 6.602A2.202 2.202 0 0 0 64.746 6H26.09a2.202 2.202 0 0 0-2.201 2.202v61.366a2.2 2.2 0 0 0 2.201 2.201h48.923a2.202 2.202 0 0 0 2.202-2.201Z"/>
  <path fill="#fff" stroke="#0C2E70" stroke-width="2" d="M26.148 58.873c9.774 0 17.698 7.924 17.698 17.698V81H8.449v-4.429c0-9.774 7.924-17.698 17.699-17.698Z"/>
  <circle cx="26.148" cy="47.619" r="10.46" fill="#fff" stroke="#0C2E70" stroke-width="2"/>
  <path fill="#CCD5E6" stroke="#0C2E70" stroke-linecap="round" stroke-linejoin="round" stroke-width="2" d="M48.465 65.26c0 8.743 7.088 15.831 15.831 15.831 8.743 0 15.831-7.088 15.831-15.831 0-8.744-7.087-15.831-15.83-15.831-8.744 0-15.832 7.087-15.832 15.83Z"/>
  <path stroke="#0C2E70" stroke-linecap="round" stroke-linejoin="round" stroke-width="2" d="m56.55 64.638 5.876 6.093L73 59.764"/>
</svg>
