<svg xmlns="http://www.w3.org/2000/svg" width="86" height="86" fill="none" viewBox="0 0 86 86">
  <path stroke="#0C2E70" stroke-width="2" d="M65.184 19.188v-4.103c0-6.273-5.709-10.997-11.871-9.823l-24.68 4.702A9.39 9.39 0 0 0 21 19.188m0 0v29.176c0 5.523 4.477 10 10 10h33.606c5.523 0 10-4.477 10-10V29.188c0-5.523-4.477-10-10-10H21Z"/>
  <path fill="#fff" stroke="#0C2E70" stroke-width="2" d="M67.356 33H78.22v11.182H67.356a5.59 5.59 0 1 1 0-11.182Z"/>
  <circle cx="68.234" cy="38.591" r="2.076" stroke="#0C2E70" stroke-width="2"/>
  <path fill="#fff" d="m27.484 69.617-9.74-17.188a1.434 1.434 0 0 0-.452-.486l-.1-.066a1.353 1.353 0 0 1 .844-2.475l16.92 1.167c1.737.12 3.412.69 4.86 1.655l3.78 2.52a9.125 9.125 0 0 0 5.062 1.533h6.14c.51 0 1.017.056 1.515.166l2.77.616a3.444 3.444 0 0 1 2.698 3.362v2.56a.49.49 0 0 1-.144.346c-.386.387.054 1.02.551.793l14.097-6.462c1.152-.46 3.592-1.381 4.145-1.381.552 0 1.611 1.381 2.072 2.072l.202.304a4.04 4.04 0 0 1-1.645 5.899l-28.67 13.457a10 10 0 0 1-7.613.365l-11.955-4.27a10 10 0 0 1-5.337-4.487Z"/>
  <rect width="16.577" height="27.628" x="1" y="56.92" stroke="#0C2E70" stroke-linecap="round" stroke-linejoin="round" stroke-width="2" rx="1" transform="rotate(-29.358 1 56.92)"/>
  <path stroke="#0C2E70" stroke-linecap="round" stroke-linejoin="round" stroke-width="2" d="M16.104 49.715h16.364a15 15 0 0 1 12.289 6.398l.057.083a1 1 0 0 0 .82.426H57.89a4.49 4.49 0 0 1 4.49 4.49v0a4.49 4.49 0 0 1-4.49 4.49H40.278"/>
  <path stroke="#0C2E70" stroke-linecap="round" stroke-linejoin="round" stroke-width="2" d="m59.619 65.602 17.696-8.563a4.334 4.334 0 0 1 5.692 1.826v0a4.334 4.334 0 0 1-1.897 5.966L53.728 78.254a10 10 0 0 1-7.746.445l-17.445-6.19"/>
  <path fill="#CCD5E6" stroke="#0C2E70" stroke-linecap="round" stroke-linejoin="round" stroke-width="2" d="M32 26.123c0 7.248 5.876 13.124 13.123 13.124 7.248 0 13.124-5.876 13.124-13.124S52.37 13 45.123 13C37.876 13 32 18.875 32 26.123Z"/>
  <path stroke="#0C2E70" stroke-linecap="round" stroke-linejoin="round" stroke-width="2" d="m38.703 25.608 4.87 5.05 8.767-9.09"/>
</svg>
