<svg width="136" height="43" viewBox="0 0 136 43" fill="none" xmlns="http://www.w3.org/2000/svg">
<path d="M42.857 21.5834C42.8774 25.7461 41.6579 29.8211 39.3529 33.2922C37.0478 36.7632 33.7611 39.4741 29.9091 41.0812C26.0571 42.6883 21.8133 43.1194 17.7153 42.3198C13.6173 41.5202 9.84967 39.5259 6.88974 36.5896C3.92982 33.6534 1.91085 29.9073 1.08866 25.826C0.266469 21.7448 0.678067 17.5121 2.2713 13.6643C3.86453 9.81648 6.56768 6.52672 10.0382 4.21188C13.5088 1.89704 17.5905 0.661309 21.7663 0.661259C24.5292 0.654382 27.2665 1.19011 29.8217 2.23785C32.3769 3.28558 34.7001 4.82481 36.6586 6.76764C38.6171 8.71046 40.1725 11.0188 41.236 13.5609C42.2995 16.103 42.8504 18.8291 42.857 21.5834Z" fill="#6A6A6A"/>
<path d="M62.4424 35.5278C60.2517 35.5089 58.1156 34.844 56.3034 33.6169C54.4911 32.3898 53.0837 30.6554 52.2586 28.6322C51.4335 26.6091 51.2275 24.3878 51.6666 22.2482C52.1058 20.1086 53.1703 18.1464 54.7263 16.6089C56.2822 15.0714 58.2597 14.0274 60.4098 13.6085C62.5599 13.1895 64.7863 13.4144 66.8084 14.2547C68.8305 15.095 70.5579 16.5132 71.7729 18.3305C72.9878 20.1478 73.636 22.283 73.6357 24.4669C73.6483 25.9312 73.3667 27.3832 72.8074 28.7372C72.2481 30.0913 71.4225 31.32 70.3793 32.3509C69.336 33.3818 68.0963 34.194 66.7332 34.7396C65.37 35.2852 63.9111 35.5532 62.4424 35.5278ZM62.4424 18.7901C61.313 18.7787 60.2057 19.1021 59.2611 19.7193C58.3165 20.3365 57.5772 21.2196 57.137 22.2565C56.6969 23.2934 56.5758 24.4373 56.7891 25.5429C57.0024 26.6486 57.5405 27.6661 58.335 28.4663C59.1296 29.2664 60.1448 29.8132 61.2516 30.0371C62.3585 30.261 63.5071 30.1519 64.5517 29.7237C65.5963 29.2955 66.4896 28.5675 67.1183 27.6322C67.747 26.6968 68.0827 25.5963 68.0828 24.4704C68.1155 23.7207 67.9924 22.9723 67.7213 22.2722C67.4502 21.5721 67.0369 20.9354 66.5073 20.402C65.9777 19.8687 65.3432 19.4502 64.6437 19.1728C63.9442 18.8954 63.1948 18.7651 62.4424 18.7901ZM90.2544 34.9489V22.76C90.3163 22.2032 90.2545 21.6396 90.0731 21.1094C89.8918 20.5791 89.5955 20.0952 89.2053 19.692C88.815 19.2888 88.3405 18.9764 87.8154 18.7768C87.2903 18.5772 86.7275 18.4954 86.1671 18.5373C85.2118 18.5431 84.2777 18.8186 83.473 19.3317C82.6682 19.8448 82.0257 20.5747 81.6198 21.4367V34.9489H76.0668V14.0268H80.9237V16.1713C81.7978 15.2367 82.8669 14.5046 84.0558 14.0268C85.2446 13.5491 86.5241 13.3372 87.8041 13.4061C88.8549 13.3814 89.9 13.5684 90.8766 13.9557C91.8533 14.3431 92.7416 14.9229 93.4882 15.6605C95.081 17.4174 95.9137 19.7301 95.8056 22.0958V34.9489H90.2544ZM131.549 35.3151C130.56 35.3936 129.566 35.2752 128.623 34.9669C127.681 34.6586 126.809 34.1665 126.059 33.5193C125.428 32.8028 124.948 31.9672 124.648 31.062C124.347 30.1568 124.232 29.2006 124.31 28.2504V19.2469H120.831V14.0268H124.301V9.14495L129.853 7.83557V14.0268H135.348V19.2573H129.856V28.3236C129.856 29.143 130.332 30.1874 132.595 30.1874C133.588 30.1874 135.292 29.9799 135.292 29.9799V34.8897C134.062 35.1565 132.808 35.3008 131.549 35.3203M109.813 35.5278C103.001 35.5278 98.2436 30.979 98.2436 24.4652C98.2177 23.0194 98.4809 21.5829 99.018 20.2397C99.5551 18.8964 100.355 17.6733 101.372 16.6416C102.388 15.61 103.601 14.7906 104.938 14.2313C106.276 13.672 107.712 13.3839 109.162 13.3839C110.613 13.3839 112.049 13.672 113.387 14.2313C114.724 14.7906 115.937 15.61 116.953 16.6416C117.97 17.6733 118.77 18.8964 119.307 20.2397C119.844 21.5829 120.107 23.0194 120.081 24.4652C120.078 25.2105 120.008 25.954 119.87 26.6864L119.859 26.7405H104.062C104.44 27.949 105.229 28.988 106.293 29.6782C107.358 30.3684 108.631 30.6663 109.892 30.5204C110.713 30.5485 111.53 30.4042 112.292 30.0969C113.053 29.7896 113.741 29.3263 114.311 28.7368L118.859 31.2492C117.814 32.6452 116.441 33.7649 114.862 34.5104C113.283 35.256 111.545 35.6046 109.799 35.526M114.499 22.4392C114.277 21.2615 113.638 20.2024 112.698 19.4553C111.758 18.7083 110.58 18.323 109.379 18.3699C108.137 18.2858 106.906 18.6509 105.912 19.3983C104.917 20.1458 104.227 21.2254 103.966 22.4392H114.499Z" fill="black"/>
</svg>
