<svg width="97" height="43" viewBox="0 0 97 43" fill="none" xmlns="http://www.w3.org/2000/svg">
<g clip-path="url(#clip0_452_221)">
<path d="M67.4871 3.38628L67.2501 4.28628C67.013 4.16628 66.6575 4.10628 66.3612 4.10628C65.5908 4.10628 65.0575 4.70628 65.0575 5.66628V8.48628H64.1686V3.32628H65.0575V3.98628C65.413 3.50628 65.9464 3.20628 66.539 3.20628C66.8945 3.20628 67.1908 3.26628 67.4871 3.38628ZM73.2945 8.48628H72.4056V7.82628C71.9908 8.30628 71.3982 8.60628 70.6278 8.60628C69.2056 8.60628 68.0797 7.46628 68.0797 5.90628C68.0797 4.34628 69.2056 3.20628 70.6278 3.20628C71.3982 3.20628 71.9908 3.50628 72.4056 3.98628V3.32628H73.2945V8.48628ZM68.9686 5.90628C68.9686 6.92628 69.6797 7.76628 70.7464 7.76628C71.7538 7.76628 72.4649 6.98628 72.4649 5.90628C72.4649 4.82628 71.7538 4.04628 70.7464 4.04628C69.6204 4.04628 68.9686 4.88628 68.9686 5.90628ZM78.8649 4.04628V0.686279H79.7538V8.48628H78.8649V7.82628C78.4501 8.30628 77.8575 8.60628 77.0871 8.60628C75.6649 8.60628 74.539 7.46628 74.539 5.90628C74.539 4.34628 75.6649 3.20628 77.0871 3.20628C77.8575 3.20628 78.4501 3.56628 78.8649 4.04628ZM75.4278 5.90628C75.4278 6.92628 76.139 7.76628 77.2056 7.76628C78.213 7.76628 78.9241 6.98628 78.9241 5.90628C78.9241 4.82628 78.213 4.04628 77.2056 4.04628C76.139 4.04628 75.4278 4.88628 75.4278 5.90628ZM82.6575 1.52628C82.6575 1.88628 82.3612 2.12628 82.0056 2.12628C81.6501 2.12628 81.413 1.88628 81.413 1.52628C81.413 1.16628 81.7093 0.866279 82.0056 0.866279C82.3612 0.926279 82.6575 1.16628 82.6575 1.52628ZM82.4797 8.48628H81.5908V3.32628H82.4797V8.48628ZM89.2945 5.90628C89.2945 7.40628 88.1686 8.60628 86.6278 8.60628C85.0871 8.60628 83.9612 7.46628 83.9612 5.90628C83.9612 4.40628 85.0871 3.20628 86.6278 3.20628C88.1686 3.20628 89.2945 4.40628 89.2945 5.90628ZM84.8501 5.90628C84.8501 6.98628 85.6204 7.76628 86.6278 7.76628C87.6353 7.76628 88.4056 6.98628 88.4056 5.90628C88.4056 4.82628 87.6353 4.04628 86.6278 4.04628C85.6204 4.04628 84.8501 4.82628 84.8501 5.90628ZM95.576 10.1663C81.6501 12.8063 60.2575 17.0663 38.4501 23.4863C39.8723 21.6263 47.3982 16.3463 57.6501 13.7063C58.4797 13.4663 58.776 12.4463 59.3093 10.8863C59.6056 9.92628 59.9612 8.84628 60.3167 7.52628C60.613 6.56628 59.9019 6.38628 59.4871 6.44628C55.2797 7.16628 35.5464 11.7863 30.1538 26.0063C26.8353 27.0863 23.4575 28.1663 20.0797 29.3663C24.3464 24.9263 28.613 18.5663 29.1464 17.3063C29.4427 16.4663 29.5612 15.9863 29.4427 15.5063C29.2649 14.4863 28.3167 12.8063 27.5464 11.9663C26.776 11.1263 26.2427 10.9463 25.3538 10.9463C20.9686 10.7063 9.17599 15.3263 7.81303 15.9863C7.10192 16.3463 7.45747 17.0063 7.63525 17.4263C7.75377 17.7863 8.40562 19.0463 9.47229 20.3063C10.539 21.5663 10.9538 21.3863 13.5612 20.2463C17.413 18.5663 20.4353 17.6663 21.5019 17.4863C15.1612 26.6663 5.56118 34.2263 1.53155 37.4663C0.761178 38.0663 0.5834 38.6663 0.820437 39.3863C0.998215 39.9863 2.24266 41.9063 2.83525 42.3863C3.42784 42.8663 4.19822 42.7463 5.44266 42.3263C7.10192 41.6663 15.339 37.5863 29.9167 32.8463C35.2501 44.2463 49.413 40.4663 53.3241 37.6463C54.4501 36.8063 54.8056 35.4263 55.0427 34.6463C55.2797 33.8063 55.9315 31.8863 56.2871 30.6863C56.6427 29.6063 56.2278 29.1863 55.4575 29.6663C47.813 34.7063 39.3982 34.7663 36.7908 30.6863C46.213 27.8663 55.6945 25.5263 65.176 23.4863C62.6871 29.1863 62.0353 34.9463 62.0353 37.5863C62.0353 40.2863 64.2278 39.5663 65.5908 39.0263C66.9538 38.4863 67.6056 37.5263 67.6649 37.0463C70.0945 25.0463 72.4649 21.9863 72.4649 21.9863C79.1019 20.6063 91.013 18.3263 93.739 17.8463C94.0945 17.7863 94.2723 17.7263 94.6871 16.9463C95.1612 16.0463 96.2871 12.7463 96.4649 11.3063C96.6427 10.1663 96.3464 10.0463 95.576 10.1663Z" fill="black"/>
</g>
<defs>
<clipPath id="clip0_452_221">
<rect width="96" height="42" fill="white" transform="translate(0.644531 0.686279)"/>
</clipPath>
</defs>
</svg>
