<svg width="71" height="72" viewBox="0 0 71 72" fill="none" xmlns="http://www.w3.org/2000/svg">
<g clip-path="url(#clip0_452_209)">
<path d="M70.3555 35.6863C70.357 48.4352 63.6864 60.2164 52.8567 66.5914C42.027 72.9663 28.6839 72.9663 17.8542 66.5914C7.02454 60.2164 0.353926 48.4352 0.355469 35.6863C0.353926 22.9373 7.02454 11.1561 17.8542 4.7812C28.6839 -1.59373 42.027 -1.59373 52.8567 4.7812C63.6864 11.1561 70.357 22.9373 70.3555 35.6863Z" fill="url(#paint0_linear_452_209)"/>
<path d="M23.23 28.496V32.8509H19.8643V39.1562C19.8643 40.0194 20.0245 40.5322 20.3451 40.6947C20.6656 40.8573 20.9972 40.9386 21.3399 40.9386C21.8704 40.9386 22.5005 40.8433 23.23 40.6527V45.428C21.9257 45.6858 20.6435 45.8147 19.3835 45.8147C17.3497 45.8147 15.8547 45.372 14.8986 44.4864C13.9425 43.6008 13.4645 42.1884 13.4645 40.2492L13.4811 38.2483V32.8509H10.9609V28.496H13.4811L13.5805 22.9305L19.8643 22.8296V28.496L23.23 28.496ZM41.5375 28.496L35.3532 45.5961H30.4125L24.1121 28.496H30.9099L33.3139 35.7598C33.5129 36.3539 33.6897 36.9424 33.8445 37.5253C33.8997 37.3235 33.9826 37.0657 34.0932 36.7518C34.1153 36.707 34.1871 36.494 34.3087 36.1129L36.7957 28.496L41.5375 28.496ZM58.8387 45.5961H52.2234V34.835C52.2233 33.9494 52.0879 33.3834 51.8171 33.1368C51.5463 32.8901 51.2064 32.7668 50.7975 32.7668C49.5927 32.7668 48.9903 33.6188 48.9903 35.3226V45.5961H42.375V28.496H48.5095V30.9173C49.4158 29.0677 51.0351 28.1429 53.3674 28.1429C54.5943 28.1429 55.6305 28.3811 56.4761 28.8575C57.3216 29.3339 57.9268 29.9504 58.2916 30.7071C58.6563 31.4637 58.8387 32.778 58.8387 34.65L58.8387 45.5961Z" fill="white"/>
<rect x="-0.996094" y="-0.535278" width="73.5897" height="73.1569" rx="36.5784" fill="#D9D9D9" style="mix-blend-mode:color"/>
</g>
<defs>
<linearGradient id="paint0_linear_452_209" x1="-0.933608" y1="-10.8196" x2="77.8983" y2="85.1932" gradientUnits="userSpaceOnUse">
<stop offset="0.15" stop-color="#75C7F9"/>
<stop offset="0.22" stop-color="#6DBEF5"/>
<stop offset="0.34" stop-color="#57A5EA"/>
<stop offset="0.37" stop-color="#519FE7"/>
<stop offset="0.71" stop-color="#1451CD"/>
<stop offset="0.75" stop-color="#124FCC"/>
<stop offset="1" stop-color="#0A44C8"/>
</linearGradient>
<clipPath id="clip0_452_209">
<rect width="70" height="71.3726" fill="white" transform="translate(0.355469)"/>
</clipPath>
</defs>
</svg>
